<mxfile host="app.diagrams.net" modified="2023-10-24T13:32:17.903Z" agent="5.0 (Windows NT 10.0; Win64; x64) AppleWebKit/537.36 (KHTML, like Gecko) Chrome/116.0.0.0 Safari/537.36 OPR/102.0.0.0" version="20.8.1" etag="LQBQ-wjfLDQi8GVu-_lM" type="github">
  <diagram id="LXYjG4Hrv5d2rXqIw_Ws" name="Page-1">
    <mxGraphModel dx="4577" dy="2460" grid="1" gridSize="10" guides="1" tooltips="1" connect="1" arrows="1" fold="1" page="1" pageScale="1" pageWidth="1169" pageHeight="827" math="0" shadow="0">
      <root>
        <mxCell id="0" />
        <mxCell id="1" parent="0" />
        <mxCell id="UvyZ2tsqIFduZ7vZ4P_s-5" style="edgeStyle=orthogonalEdgeStyle;rounded=0;orthogonalLoop=1;jettySize=auto;html=1;entryX=0.5;entryY=0;entryDx=0;entryDy=0;" edge="1" parent="1" source="UvyZ2tsqIFduZ7vZ4P_s-2" target="UvyZ2tsqIFduZ7vZ4P_s-3">
          <mxGeometry relative="1" as="geometry" />
        </mxCell>
        <mxCell id="UvyZ2tsqIFduZ7vZ4P_s-7" value="Да" style="edgeLabel;html=1;align=center;verticalAlign=middle;resizable=0;points=[];" vertex="1" connectable="0" parent="UvyZ2tsqIFduZ7vZ4P_s-5">
          <mxGeometry x="-0.1128" y="-2" relative="1" as="geometry">
            <mxPoint as="offset" />
          </mxGeometry>
        </mxCell>
        <mxCell id="UvyZ2tsqIFduZ7vZ4P_s-6" style="edgeStyle=orthogonalEdgeStyle;rounded=0;orthogonalLoop=1;jettySize=auto;html=1;" edge="1" parent="1" source="UvyZ2tsqIFduZ7vZ4P_s-2" target="UvyZ2tsqIFduZ7vZ4P_s-4">
          <mxGeometry relative="1" as="geometry" />
        </mxCell>
        <mxCell id="UvyZ2tsqIFduZ7vZ4P_s-8" value="Не" style="edgeLabel;html=1;align=center;verticalAlign=middle;resizable=0;points=[];" vertex="1" connectable="0" parent="UvyZ2tsqIFduZ7vZ4P_s-6">
          <mxGeometry x="-0.6462" y="-5" relative="1" as="geometry">
            <mxPoint as="offset" />
          </mxGeometry>
        </mxCell>
        <mxCell id="UvyZ2tsqIFduZ7vZ4P_s-2" value="Значи сме рестартирали 10.1.7.43?" style="rounded=1;whiteSpace=wrap;html=1;fillColor=#e1d5e7;strokeColor=#9673a6;" vertex="1" parent="1">
          <mxGeometry x="525" y="20" width="120" height="60" as="geometry" />
        </mxCell>
        <mxCell id="UvyZ2tsqIFduZ7vZ4P_s-10" style="edgeStyle=orthogonalEdgeStyle;rounded=0;orthogonalLoop=1;jettySize=auto;html=1;" edge="1" parent="1" source="UvyZ2tsqIFduZ7vZ4P_s-3" target="UvyZ2tsqIFduZ7vZ4P_s-9">
          <mxGeometry relative="1" as="geometry" />
        </mxCell>
        <mxCell id="UvyZ2tsqIFduZ7vZ4P_s-3" value="Да започваме стартирането" style="rounded=0;whiteSpace=wrap;html=1;fillColor=#fff2cc;strokeColor=#d6b656;" vertex="1" parent="1">
          <mxGeometry x="380" y="100" width="120" height="60" as="geometry" />
        </mxCell>
        <mxCell id="UvyZ2tsqIFduZ7vZ4P_s-4" value="Carry on" style="rounded=0;whiteSpace=wrap;html=1;fillColor=#d5e8d4;strokeColor=#82b366;" vertex="1" parent="1">
          <mxGeometry x="660" y="100" width="120" height="60" as="geometry" />
        </mxCell>
        <mxCell id="UvyZ2tsqIFduZ7vZ4P_s-12" style="edgeStyle=orthogonalEdgeStyle;rounded=0;orthogonalLoop=1;jettySize=auto;html=1;" edge="1" parent="1" source="UvyZ2tsqIFduZ7vZ4P_s-9" target="UvyZ2tsqIFduZ7vZ4P_s-11">
          <mxGeometry relative="1" as="geometry" />
        </mxCell>
        <mxCell id="UvyZ2tsqIFduZ7vZ4P_s-9" value="Влизаме в 10.1.7.43 с нашия акаунт" style="rounded=1;whiteSpace=wrap;html=1;fillColor=#fff2cc;strokeColor=#d6b656;" vertex="1" parent="1">
          <mxGeometry x="380" y="200" width="120" height="60" as="geometry" />
        </mxCell>
        <mxCell id="UvyZ2tsqIFduZ7vZ4P_s-14" style="edgeStyle=orthogonalEdgeStyle;rounded=0;orthogonalLoop=1;jettySize=auto;html=1;" edge="1" parent="1" source="UvyZ2tsqIFduZ7vZ4P_s-11" target="UvyZ2tsqIFduZ7vZ4P_s-13">
          <mxGeometry relative="1" as="geometry" />
        </mxCell>
        <mxCell id="UvyZ2tsqIFduZ7vZ4P_s-11" value="въвеждаме кода от google auth&lt;br&gt;(optional ако е активно, но най-вероятно вече е)" style="rounded=1;whiteSpace=wrap;html=1;" vertex="1" parent="1">
          <mxGeometry x="360" y="280" width="160" height="60" as="geometry" />
        </mxCell>
        <mxCell id="UvyZ2tsqIFduZ7vZ4P_s-16" style="edgeStyle=orthogonalEdgeStyle;rounded=0;orthogonalLoop=1;jettySize=auto;html=1;entryX=0.5;entryY=0;entryDx=0;entryDy=0;" edge="1" parent="1" source="UvyZ2tsqIFduZ7vZ4P_s-13" target="UvyZ2tsqIFduZ7vZ4P_s-15">
          <mxGeometry relative="1" as="geometry" />
        </mxCell>
        <mxCell id="UvyZ2tsqIFduZ7vZ4P_s-13" value="правим sudo su" style="rounded=1;whiteSpace=wrap;html=1;fillColor=#dae8fc;strokeColor=#6c8ebf;" vertex="1" parent="1">
          <mxGeometry x="380" y="370" width="120" height="60" as="geometry" />
        </mxCell>
        <mxCell id="UvyZ2tsqIFduZ7vZ4P_s-18" style="edgeStyle=orthogonalEdgeStyle;rounded=0;orthogonalLoop=1;jettySize=auto;html=1;entryX=0;entryY=0.5;entryDx=0;entryDy=0;" edge="1" parent="1" source="UvyZ2tsqIFduZ7vZ4P_s-15" target="UvyZ2tsqIFduZ7vZ4P_s-17">
          <mxGeometry relative="1" as="geometry" />
        </mxCell>
        <mxCell id="UvyZ2tsqIFduZ7vZ4P_s-15" value="отваряме screen 1&lt;br&gt;(screen)" style="rounded=1;whiteSpace=wrap;html=1;fillColor=#dae8fc;strokeColor=#6c8ebf;" vertex="1" parent="1">
          <mxGeometry x="380" y="460" width="120" height="60" as="geometry" />
        </mxCell>
        <mxCell id="UvyZ2tsqIFduZ7vZ4P_s-20" style="edgeStyle=orthogonalEdgeStyle;rounded=0;orthogonalLoop=1;jettySize=auto;html=1;entryX=0;entryY=0.5;entryDx=0;entryDy=0;" edge="1" parent="1" source="UvyZ2tsqIFduZ7vZ4P_s-17" target="UvyZ2tsqIFduZ7vZ4P_s-19">
          <mxGeometry relative="1" as="geometry" />
        </mxCell>
        <mxCell id="UvyZ2tsqIFduZ7vZ4P_s-17" value="Започваме с Информатика" style="rounded=1;whiteSpace=wrap;html=1;fillColor=#fff2cc;strokeColor=#d6b656;" vertex="1" parent="1">
          <mxGeometry x="540" y="460" width="120" height="60" as="geometry" />
        </mxCell>
        <mxCell id="UvyZ2tsqIFduZ7vZ4P_s-22" value="" style="edgeStyle=orthogonalEdgeStyle;rounded=0;orthogonalLoop=1;jettySize=auto;html=1;" edge="1" parent="1" source="UvyZ2tsqIFduZ7vZ4P_s-19" target="UvyZ2tsqIFduZ7vZ4P_s-21">
          <mxGeometry relative="1" as="geometry" />
        </mxCell>
        <mxCell id="UvyZ2tsqIFduZ7vZ4P_s-19" value="пишем&lt;br&gt;source ~/.bash_profile" style="rounded=1;whiteSpace=wrap;html=1;fillColor=#dae8fc;strokeColor=#6c8ebf;" vertex="1" parent="1">
          <mxGeometry x="690" y="460" width="140" height="60" as="geometry" />
        </mxCell>
        <mxCell id="UvyZ2tsqIFduZ7vZ4P_s-24" style="edgeStyle=orthogonalEdgeStyle;rounded=0;orthogonalLoop=1;jettySize=auto;html=1;" edge="1" parent="1" source="UvyZ2tsqIFduZ7vZ4P_s-21" target="UvyZ2tsqIFduZ7vZ4P_s-23">
          <mxGeometry relative="1" as="geometry" />
        </mxCell>
        <mxCell id="UvyZ2tsqIFduZ7vZ4P_s-21" value="връща ни &quot;SOURCED&quot;" style="rounded=1;whiteSpace=wrap;html=1;fillColor=#fff2cc;strokeColor=#d6b656;" vertex="1" parent="1">
          <mxGeometry x="860" y="460" width="140" height="60" as="geometry" />
        </mxCell>
        <mxCell id="UvyZ2tsqIFduZ7vZ4P_s-35" style="edgeStyle=orthogonalEdgeStyle;rounded=0;orthogonalLoop=1;jettySize=auto;html=1;entryX=0;entryY=0.5;entryDx=0;entryDy=0;" edge="1" parent="1" source="UvyZ2tsqIFduZ7vZ4P_s-23" target="UvyZ2tsqIFduZ7vZ4P_s-34">
          <mxGeometry relative="1" as="geometry" />
        </mxCell>
        <mxCell id="UvyZ2tsqIFduZ7vZ4P_s-23" value="пишем&lt;br&gt;infastart" style="rounded=1;whiteSpace=wrap;html=1;fillColor=#dae8fc;strokeColor=#6c8ebf;" vertex="1" parent="1">
          <mxGeometry x="1029" y="460" width="140" height="60" as="geometry" />
        </mxCell>
        <mxCell id="UvyZ2tsqIFduZ7vZ4P_s-25" value="Легенда" style="text;html=1;strokeColor=none;fillColor=none;align=center;verticalAlign=middle;whiteSpace=wrap;rounded=0;" vertex="1" parent="1">
          <mxGeometry x="940" y="20" width="60" height="30" as="geometry" />
        </mxCell>
        <mxCell id="UvyZ2tsqIFduZ7vZ4P_s-26" value="" style="rounded=0;whiteSpace=wrap;html=1;fillColor=#e1d5e7;strokeColor=#9673a6;" vertex="1" parent="1">
          <mxGeometry x="909" y="60" width="41" height="20" as="geometry" />
        </mxCell>
        <mxCell id="UvyZ2tsqIFduZ7vZ4P_s-27" value="" style="rounded=0;whiteSpace=wrap;html=1;fillColor=#d5e8d4;strokeColor=#82b366;" vertex="1" parent="1">
          <mxGeometry x="909.5" y="90" width="41" height="20" as="geometry" />
        </mxCell>
        <mxCell id="UvyZ2tsqIFduZ7vZ4P_s-28" value="" style="rounded=0;whiteSpace=wrap;html=1;fillColor=#fff2cc;strokeColor=#d6b656;" vertex="1" parent="1">
          <mxGeometry x="909" y="120" width="41" height="20" as="geometry" />
        </mxCell>
        <mxCell id="UvyZ2tsqIFduZ7vZ4P_s-29" value="" style="rounded=0;whiteSpace=wrap;html=1;fillColor=#dae8fc;strokeColor=#6c8ebf;" vertex="1" parent="1">
          <mxGeometry x="909.5" y="150" width="41" height="20" as="geometry" />
        </mxCell>
        <mxCell id="UvyZ2tsqIFduZ7vZ4P_s-30" value="Въпрос" style="text;html=1;strokeColor=none;fillColor=none;align=center;verticalAlign=middle;whiteSpace=wrap;rounded=0;" vertex="1" parent="1">
          <mxGeometry x="950.5" y="55" width="60" height="30" as="geometry" />
        </mxCell>
        <mxCell id="UvyZ2tsqIFduZ7vZ4P_s-31" value="Готово" style="text;html=1;strokeColor=none;fillColor=none;align=center;verticalAlign=middle;whiteSpace=wrap;rounded=0;" vertex="1" parent="1">
          <mxGeometry x="950.5" y="85" width="60" height="30" as="geometry" />
        </mxCell>
        <mxCell id="UvyZ2tsqIFduZ7vZ4P_s-32" value="Коментар" style="text;html=1;strokeColor=none;fillColor=none;align=center;verticalAlign=middle;whiteSpace=wrap;rounded=0;" vertex="1" parent="1">
          <mxGeometry x="950" y="115" width="60" height="30" as="geometry" />
        </mxCell>
        <mxCell id="UvyZ2tsqIFduZ7vZ4P_s-33" value="Скрипт" style="text;html=1;strokeColor=none;fillColor=none;align=center;verticalAlign=middle;whiteSpace=wrap;rounded=0;" vertex="1" parent="1">
          <mxGeometry x="950" y="145" width="60" height="30" as="geometry" />
        </mxCell>
        <mxCell id="UvyZ2tsqIFduZ7vZ4P_s-37" style="edgeStyle=orthogonalEdgeStyle;rounded=0;orthogonalLoop=1;jettySize=auto;html=1;" edge="1" parent="1" source="UvyZ2tsqIFduZ7vZ4P_s-34" target="UvyZ2tsqIFduZ7vZ4P_s-36">
          <mxGeometry relative="1" as="geometry" />
        </mxCell>
        <mxCell id="UvyZ2tsqIFduZ7vZ4P_s-34" value="връща ни &quot;node01 started ......&quot; и тн" style="rounded=1;whiteSpace=wrap;html=1;fillColor=#fff2cc;strokeColor=#d6b656;" vertex="1" parent="1">
          <mxGeometry x="1190" y="460" width="140" height="60" as="geometry" />
        </mxCell>
        <mxCell id="UvyZ2tsqIFduZ7vZ4P_s-39" value="" style="edgeStyle=orthogonalEdgeStyle;rounded=0;orthogonalLoop=1;jettySize=auto;html=1;" edge="1" parent="1" source="UvyZ2tsqIFduZ7vZ4P_s-36" target="UvyZ2tsqIFduZ7vZ4P_s-38">
          <mxGeometry relative="1" as="geometry" />
        </mxCell>
        <mxCell id="UvyZ2tsqIFduZ7vZ4P_s-36" value="пишем&lt;br&gt;infalogs" style="rounded=1;whiteSpace=wrap;html=1;fillColor=#dae8fc;strokeColor=#6c8ebf;" vertex="1" parent="1">
          <mxGeometry x="1350" y="460" width="140" height="60" as="geometry" />
        </mxCell>
        <mxCell id="UvyZ2tsqIFduZ7vZ4P_s-41" value="Пише" style="edgeStyle=orthogonalEdgeStyle;rounded=0;orthogonalLoop=1;jettySize=auto;html=1;" edge="1" parent="1" source="UvyZ2tsqIFduZ7vZ4P_s-38" target="UvyZ2tsqIFduZ7vZ4P_s-40">
          <mxGeometry relative="1" as="geometry" />
        </mxCell>
        <mxCell id="UvyZ2tsqIFduZ7vZ4P_s-43" value="Не Пише" style="edgeStyle=orthogonalEdgeStyle;rounded=0;orthogonalLoop=1;jettySize=auto;html=1;" edge="1" parent="1" source="UvyZ2tsqIFduZ7vZ4P_s-38" target="UvyZ2tsqIFduZ7vZ4P_s-42">
          <mxGeometry relative="1" as="geometry">
            <Array as="points">
              <mxPoint x="1590" y="440" />
              <mxPoint x="1590" y="440" />
            </Array>
          </mxGeometry>
        </mxCell>
        <mxCell id="UvyZ2tsqIFduZ7vZ4P_s-38" value="гледаме дали ще видим&amp;nbsp;&lt;span style=&quot;background-color: initial;&quot;&gt;&lt;span style=&quot;font-size: 12px;&quot;&gt;[Domain Monitor] Container service init method is called.&lt;/span&gt;&lt;br&gt;&lt;/span&gt;" style="rounded=1;whiteSpace=wrap;html=1;fillColor=#fff2cc;strokeColor=#d6b656;" vertex="1" parent="1">
          <mxGeometry x="1520" y="450" width="140" height="80" as="geometry" />
        </mxCell>
        <mxCell id="UvyZ2tsqIFduZ7vZ4P_s-58" style="edgeStyle=orthogonalEdgeStyle;rounded=0;orthogonalLoop=1;jettySize=auto;html=1;" edge="1" parent="1" source="UvyZ2tsqIFduZ7vZ4P_s-40" target="UvyZ2tsqIFduZ7vZ4P_s-55">
          <mxGeometry relative="1" as="geometry">
            <Array as="points">
              <mxPoint x="1790" y="540" />
              <mxPoint x="440" y="540" />
            </Array>
          </mxGeometry>
        </mxCell>
        <mxCell id="UvyZ2tsqIFduZ7vZ4P_s-40" value="CTRL+A+D" style="rounded=1;whiteSpace=wrap;html=1;fillColor=#dae8fc;strokeColor=#6c8ebf;" vertex="1" parent="1">
          <mxGeometry x="1720" y="460" width="140" height="60" as="geometry" />
        </mxCell>
        <mxCell id="UvyZ2tsqIFduZ7vZ4P_s-45" style="edgeStyle=orthogonalEdgeStyle;rounded=0;orthogonalLoop=1;jettySize=auto;html=1;" edge="1" parent="1" source="UvyZ2tsqIFduZ7vZ4P_s-42" target="UvyZ2tsqIFduZ7vZ4P_s-44">
          <mxGeometry relative="1" as="geometry" />
        </mxCell>
        <mxCell id="UvyZ2tsqIFduZ7vZ4P_s-46" value="Порта е зает" style="edgeLabel;html=1;align=center;verticalAlign=middle;resizable=0;points=[];" vertex="1" connectable="0" parent="UvyZ2tsqIFduZ7vZ4P_s-45">
          <mxGeometry x="0.145" y="2" relative="1" as="geometry">
            <mxPoint as="offset" />
          </mxGeometry>
        </mxCell>
        <mxCell id="UvyZ2tsqIFduZ7vZ4P_s-51" value="Не намира базата" style="edgeStyle=orthogonalEdgeStyle;rounded=0;orthogonalLoop=1;jettySize=auto;html=1;" edge="1" parent="1" source="UvyZ2tsqIFduZ7vZ4P_s-42" target="UvyZ2tsqIFduZ7vZ4P_s-50">
          <mxGeometry relative="1" as="geometry" />
        </mxCell>
        <mxCell id="UvyZ2tsqIFduZ7vZ4P_s-42" value="Гледаме лога" style="rounded=1;whiteSpace=wrap;html=1;fillColor=#e1d5e7;strokeColor=#9673a6;" vertex="1" parent="1">
          <mxGeometry x="1520" y="340" width="140" height="60" as="geometry" />
        </mxCell>
        <mxCell id="UvyZ2tsqIFduZ7vZ4P_s-49" style="edgeStyle=orthogonalEdgeStyle;rounded=0;orthogonalLoop=1;jettySize=auto;html=1;" edge="1" parent="1" source="UvyZ2tsqIFduZ7vZ4P_s-44" target="UvyZ2tsqIFduZ7vZ4P_s-23">
          <mxGeometry relative="1" as="geometry" />
        </mxCell>
        <mxCell id="UvyZ2tsqIFduZ7vZ4P_s-44" value="fuser -k 6005/tcp" style="rounded=1;whiteSpace=wrap;html=1;fillColor=#dae8fc;strokeColor=#6c8ebf;" vertex="1" parent="1">
          <mxGeometry x="1260" y="340" width="140" height="60" as="geometry" />
        </mxCell>
        <mxCell id="UvyZ2tsqIFduZ7vZ4P_s-53" style="edgeStyle=orthogonalEdgeStyle;rounded=0;orthogonalLoop=1;jettySize=auto;html=1;" edge="1" parent="1" source="UvyZ2tsqIFduZ7vZ4P_s-50" target="UvyZ2tsqIFduZ7vZ4P_s-52">
          <mxGeometry relative="1" as="geometry" />
        </mxCell>
        <mxCell id="UvyZ2tsqIFduZ7vZ4P_s-50" value="Отиваме на 10.1.7.42 и оправяме базата" style="rounded=1;whiteSpace=wrap;html=1;fillColor=#fff2cc;strokeColor=#d6b656;" vertex="1" parent="1">
          <mxGeometry x="1520" y="220" width="140" height="60" as="geometry" />
        </mxCell>
        <mxCell id="UvyZ2tsqIFduZ7vZ4P_s-54" style="edgeStyle=orthogonalEdgeStyle;rounded=0;orthogonalLoop=1;jettySize=auto;html=1;entryX=0.297;entryY=-0.015;entryDx=0;entryDy=0;entryPerimeter=0;" edge="1" parent="1" source="UvyZ2tsqIFduZ7vZ4P_s-52" target="UvyZ2tsqIFduZ7vZ4P_s-23">
          <mxGeometry relative="1" as="geometry" />
        </mxCell>
        <UserObject label="https://confluence.egt.com/pages/viewpage.action?pageId=99518380" link="https://confluence.egt.com/pages/viewpage.action?pageId=99518380" id="UvyZ2tsqIFduZ7vZ4P_s-52">
          <mxCell style="text;whiteSpace=wrap;html=1;" vertex="1" parent="1">
            <mxGeometry x="1390" y="130" width="400" height="40" as="geometry" />
          </mxCell>
        </UserObject>
        <mxCell id="UvyZ2tsqIFduZ7vZ4P_s-59" style="edgeStyle=orthogonalEdgeStyle;rounded=0;orthogonalLoop=1;jettySize=auto;html=1;entryX=0;entryY=0.5;entryDx=0;entryDy=0;" edge="1" parent="1" source="UvyZ2tsqIFduZ7vZ4P_s-55" target="UvyZ2tsqIFduZ7vZ4P_s-56">
          <mxGeometry relative="1" as="geometry" />
        </mxCell>
        <mxCell id="UvyZ2tsqIFduZ7vZ4P_s-55" value="отваряме screen 2&lt;br&gt;(screen)" style="rounded=1;whiteSpace=wrap;html=1;fillColor=#dae8fc;strokeColor=#6c8ebf;" vertex="1" parent="1">
          <mxGeometry x="380" y="660" width="120" height="60" as="geometry" />
        </mxCell>
        <mxCell id="UvyZ2tsqIFduZ7vZ4P_s-60" style="edgeStyle=orthogonalEdgeStyle;rounded=0;orthogonalLoop=1;jettySize=auto;html=1;" edge="1" parent="1" source="UvyZ2tsqIFduZ7vZ4P_s-56" target="UvyZ2tsqIFduZ7vZ4P_s-57">
          <mxGeometry relative="1" as="geometry" />
        </mxCell>
        <mxCell id="UvyZ2tsqIFduZ7vZ4P_s-56" value="Продължаваме с grafana" style="rounded=1;whiteSpace=wrap;html=1;fillColor=#fff2cc;strokeColor=#d6b656;" vertex="1" parent="1">
          <mxGeometry x="540" y="660" width="120" height="60" as="geometry" />
        </mxCell>
        <mxCell id="UvyZ2tsqIFduZ7vZ4P_s-63" style="edgeStyle=orthogonalEdgeStyle;rounded=0;orthogonalLoop=1;jettySize=auto;html=1;entryX=0;entryY=0.5;entryDx=0;entryDy=0;exitX=0.5;exitY=0;exitDx=0;exitDy=0;" edge="1" parent="1" source="UvyZ2tsqIFduZ7vZ4P_s-57" target="UvyZ2tsqIFduZ7vZ4P_s-62">
          <mxGeometry x="0.1111" y="10" relative="1" as="geometry">
            <Array as="points">
              <mxPoint x="775" y="590" />
            </Array>
            <mxPoint as="offset" />
          </mxGeometry>
        </mxCell>
        <mxCell id="UvyZ2tsqIFduZ7vZ4P_s-57" value="пишем&lt;br&gt;systemctl status grafana-server" style="rounded=1;whiteSpace=wrap;html=1;fillColor=#dae8fc;strokeColor=#6c8ebf;" vertex="1" parent="1">
          <mxGeometry x="690" y="660" width="170" height="60" as="geometry" />
        </mxCell>
        <mxCell id="UvyZ2tsqIFduZ7vZ4P_s-74" style="edgeStyle=orthogonalEdgeStyle;rounded=0;orthogonalLoop=1;jettySize=auto;html=1;" edge="1" parent="1" source="UvyZ2tsqIFduZ7vZ4P_s-62" target="UvyZ2tsqIFduZ7vZ4P_s-73">
          <mxGeometry relative="1" as="geometry" />
        </mxCell>
        <mxCell id="UvyZ2tsqIFduZ7vZ4P_s-75" value="Не" style="edgeStyle=orthogonalEdgeStyle;rounded=0;orthogonalLoop=1;jettySize=auto;html=1;" edge="1" parent="1" source="UvyZ2tsqIFduZ7vZ4P_s-62" target="UvyZ2tsqIFduZ7vZ4P_s-73">
          <mxGeometry relative="1" as="geometry" />
        </mxCell>
        <mxCell id="UvyZ2tsqIFduZ7vZ4P_s-98" value="" style="edgeStyle=orthogonalEdgeStyle;rounded=0;orthogonalLoop=1;jettySize=auto;html=1;entryX=0.5;entryY=0;entryDx=0;entryDy=0;" edge="1" parent="1" source="UvyZ2tsqIFduZ7vZ4P_s-62" target="UvyZ2tsqIFduZ7vZ4P_s-85">
          <mxGeometry relative="1" as="geometry" />
        </mxCell>
        <mxCell id="UvyZ2tsqIFduZ7vZ4P_s-99" value="Да" style="edgeLabel;html=1;align=center;verticalAlign=middle;resizable=0;points=[];" vertex="1" connectable="0" parent="UvyZ2tsqIFduZ7vZ4P_s-98">
          <mxGeometry x="-0.8088" y="-1" relative="1" as="geometry">
            <mxPoint as="offset" />
          </mxGeometry>
        </mxCell>
        <mxCell id="UvyZ2tsqIFduZ7vZ4P_s-62" value="OK ли е?" style="rhombus;whiteSpace=wrap;html=1;" vertex="1" parent="1">
          <mxGeometry x="930" y="550" width="80" height="80" as="geometry" />
        </mxCell>
        <mxCell id="UvyZ2tsqIFduZ7vZ4P_s-66" style="edgeStyle=orthogonalEdgeStyle;rounded=0;orthogonalLoop=1;jettySize=auto;html=1;entryX=0;entryY=0.5;entryDx=0;entryDy=0;" edge="1" parent="1" source="UvyZ2tsqIFduZ7vZ4P_s-67" target="UvyZ2tsqIFduZ7vZ4P_s-69">
          <mxGeometry relative="1" as="geometry" />
        </mxCell>
        <mxCell id="UvyZ2tsqIFduZ7vZ4P_s-67" value="отваряме screen 3&lt;br&gt;(screen)" style="rounded=1;whiteSpace=wrap;html=1;fillColor=#dae8fc;strokeColor=#6c8ebf;" vertex="1" parent="1">
          <mxGeometry x="380" y="760" width="120" height="60" as="geometry" />
        </mxCell>
        <mxCell id="UvyZ2tsqIFduZ7vZ4P_s-68" style="edgeStyle=orthogonalEdgeStyle;rounded=0;orthogonalLoop=1;jettySize=auto;html=1;" edge="1" parent="1" source="UvyZ2tsqIFduZ7vZ4P_s-69" target="UvyZ2tsqIFduZ7vZ4P_s-70">
          <mxGeometry relative="1" as="geometry" />
        </mxCell>
        <mxCell id="UvyZ2tsqIFduZ7vZ4P_s-69" value="Продължаваме с discordbot-a" style="rounded=1;whiteSpace=wrap;html=1;fillColor=#fff2cc;strokeColor=#d6b656;" vertex="1" parent="1">
          <mxGeometry x="540" y="760" width="120" height="60" as="geometry" />
        </mxCell>
        <mxCell id="UvyZ2tsqIFduZ7vZ4P_s-77" style="edgeStyle=orthogonalEdgeStyle;rounded=0;orthogonalLoop=1;jettySize=auto;html=1;" edge="1" parent="1" source="UvyZ2tsqIFduZ7vZ4P_s-70" target="UvyZ2tsqIFduZ7vZ4P_s-76">
          <mxGeometry relative="1" as="geometry" />
        </mxCell>
        <mxCell id="UvyZ2tsqIFduZ7vZ4P_s-70" value="пишем&lt;br&gt;cd /home/Informatica/discordbot" style="rounded=1;whiteSpace=wrap;html=1;fillColor=#dae8fc;strokeColor=#6c8ebf;" vertex="1" parent="1">
          <mxGeometry x="690" y="760" width="190" height="60" as="geometry" />
        </mxCell>
        <mxCell id="UvyZ2tsqIFduZ7vZ4P_s-73" value="Намери проблема" style="rounded=1;whiteSpace=wrap;html=1;fillColor=#e1d5e7;strokeColor=#9673a6;" vertex="1" parent="1">
          <mxGeometry x="1100" y="560" width="120" height="60" as="geometry" />
        </mxCell>
        <mxCell id="UvyZ2tsqIFduZ7vZ4P_s-95" style="edgeStyle=orthogonalEdgeStyle;rounded=0;orthogonalLoop=1;jettySize=auto;html=1;entryX=0;entryY=0.5;entryDx=0;entryDy=0;" edge="1" parent="1" source="UvyZ2tsqIFduZ7vZ4P_s-76" target="UvyZ2tsqIFduZ7vZ4P_s-92">
          <mxGeometry relative="1" as="geometry">
            <Array as="points">
              <mxPoint x="1100" y="670" />
            </Array>
          </mxGeometry>
        </mxCell>
        <mxCell id="UvyZ2tsqIFduZ7vZ4P_s-76" value="пишем&lt;br&gt;gunicorn -w 4 --bind 0.0.0.0:5021 webhooklogs:app" style="rounded=1;whiteSpace=wrap;html=1;fillColor=#dae8fc;strokeColor=#6c8ebf;" vertex="1" parent="1">
          <mxGeometry x="909.5" y="760" width="290.5" height="60" as="geometry" />
        </mxCell>
        <mxCell id="UvyZ2tsqIFduZ7vZ4P_s-78" style="edgeStyle=orthogonalEdgeStyle;rounded=0;orthogonalLoop=1;jettySize=auto;html=1;entryX=0;entryY=0.5;entryDx=0;entryDy=0;" edge="1" parent="1" source="UvyZ2tsqIFduZ7vZ4P_s-79" target="UvyZ2tsqIFduZ7vZ4P_s-81">
          <mxGeometry relative="1" as="geometry" />
        </mxCell>
        <mxCell id="UvyZ2tsqIFduZ7vZ4P_s-79" value="отваряме screen 4&lt;br&gt;(screen)" style="rounded=1;whiteSpace=wrap;html=1;fillColor=#dae8fc;strokeColor=#6c8ebf;" vertex="1" parent="1">
          <mxGeometry x="380" y="860" width="120" height="60" as="geometry" />
        </mxCell>
        <mxCell id="UvyZ2tsqIFduZ7vZ4P_s-80" style="edgeStyle=orthogonalEdgeStyle;rounded=0;orthogonalLoop=1;jettySize=auto;html=1;" edge="1" parent="1" source="UvyZ2tsqIFduZ7vZ4P_s-81" target="UvyZ2tsqIFduZ7vZ4P_s-82">
          <mxGeometry relative="1" as="geometry" />
        </mxCell>
        <mxCell id="UvyZ2tsqIFduZ7vZ4P_s-81" value="Продължаваме с alertmanager" style="rounded=1;whiteSpace=wrap;html=1;fillColor=#fff2cc;strokeColor=#d6b656;" vertex="1" parent="1">
          <mxGeometry x="540" y="860" width="120" height="60" as="geometry" />
        </mxCell>
        <mxCell id="UvyZ2tsqIFduZ7vZ4P_s-108" value="" style="edgeStyle=orthogonalEdgeStyle;rounded=0;orthogonalLoop=1;jettySize=auto;html=1;" edge="1" parent="1" source="UvyZ2tsqIFduZ7vZ4P_s-82" target="UvyZ2tsqIFduZ7vZ4P_s-105">
          <mxGeometry relative="1" as="geometry" />
        </mxCell>
        <mxCell id="UvyZ2tsqIFduZ7vZ4P_s-82" value="пишем&lt;br&gt;systemctl status alertmanager" style="rounded=1;whiteSpace=wrap;html=1;fillColor=#dae8fc;strokeColor=#6c8ebf;" vertex="1" parent="1">
          <mxGeometry x="690" y="860" width="190" height="60" as="geometry" />
        </mxCell>
        <mxCell id="UvyZ2tsqIFduZ7vZ4P_s-101" style="edgeStyle=orthogonalEdgeStyle;rounded=0;orthogonalLoop=1;jettySize=auto;html=1;" edge="1" parent="1" source="UvyZ2tsqIFduZ7vZ4P_s-85" target="UvyZ2tsqIFduZ7vZ4P_s-67">
          <mxGeometry relative="1" as="geometry">
            <Array as="points">
              <mxPoint x="970" y="740" />
              <mxPoint x="440" y="740" />
            </Array>
          </mxGeometry>
        </mxCell>
        <mxCell id="UvyZ2tsqIFduZ7vZ4P_s-85" value="CTRL+A+D" style="rounded=1;whiteSpace=wrap;html=1;fillColor=#dae8fc;strokeColor=#6c8ebf;" vertex="1" parent="1">
          <mxGeometry x="900" y="660" width="140" height="60" as="geometry" />
        </mxCell>
        <mxCell id="UvyZ2tsqIFduZ7vZ4P_s-89" style="edgeStyle=orthogonalEdgeStyle;rounded=0;orthogonalLoop=1;jettySize=auto;html=1;" edge="1" parent="1" source="UvyZ2tsqIFduZ7vZ4P_s-92" target="UvyZ2tsqIFduZ7vZ4P_s-93">
          <mxGeometry relative="1" as="geometry" />
        </mxCell>
        <mxCell id="UvyZ2tsqIFduZ7vZ4P_s-90" value="Не" style="edgeStyle=orthogonalEdgeStyle;rounded=0;orthogonalLoop=1;jettySize=auto;html=1;" edge="1" parent="1" source="UvyZ2tsqIFduZ7vZ4P_s-92" target="UvyZ2tsqIFduZ7vZ4P_s-93">
          <mxGeometry relative="1" as="geometry" />
        </mxCell>
        <mxCell id="UvyZ2tsqIFduZ7vZ4P_s-91" value="Да" style="edgeStyle=orthogonalEdgeStyle;rounded=0;orthogonalLoop=1;jettySize=auto;html=1;" edge="1" parent="1" source="UvyZ2tsqIFduZ7vZ4P_s-92" target="UvyZ2tsqIFduZ7vZ4P_s-94">
          <mxGeometry relative="1" as="geometry" />
        </mxCell>
        <mxCell id="UvyZ2tsqIFduZ7vZ4P_s-92" value="OK ли е?" style="rhombus;whiteSpace=wrap;html=1;" vertex="1" parent="1">
          <mxGeometry x="1260.5" y="630" width="80" height="80" as="geometry" />
        </mxCell>
        <mxCell id="UvyZ2tsqIFduZ7vZ4P_s-93" value="Намери проблема" style="rounded=1;whiteSpace=wrap;html=1;fillColor=#e1d5e7;strokeColor=#9673a6;" vertex="1" parent="1">
          <mxGeometry x="1381" y="640" width="120" height="60" as="geometry" />
        </mxCell>
        <mxCell id="UvyZ2tsqIFduZ7vZ4P_s-96" style="edgeStyle=orthogonalEdgeStyle;rounded=0;orthogonalLoop=1;jettySize=auto;html=1;" edge="1" parent="1" source="UvyZ2tsqIFduZ7vZ4P_s-94" target="UvyZ2tsqIFduZ7vZ4P_s-79">
          <mxGeometry relative="1" as="geometry">
            <Array as="points">
              <mxPoint x="1300" y="840" />
              <mxPoint x="440" y="840" />
            </Array>
          </mxGeometry>
        </mxCell>
        <mxCell id="UvyZ2tsqIFduZ7vZ4P_s-94" value="CTRL+A+D" style="rounded=1;whiteSpace=wrap;html=1;fillColor=#dae8fc;strokeColor=#6c8ebf;" vertex="1" parent="1">
          <mxGeometry x="1230" y="760" width="140" height="60" as="geometry" />
        </mxCell>
        <mxCell id="UvyZ2tsqIFduZ7vZ4P_s-102" style="edgeStyle=orthogonalEdgeStyle;rounded=0;orthogonalLoop=1;jettySize=auto;html=1;" edge="1" parent="1" source="UvyZ2tsqIFduZ7vZ4P_s-105" target="UvyZ2tsqIFduZ7vZ4P_s-106">
          <mxGeometry relative="1" as="geometry" />
        </mxCell>
        <mxCell id="UvyZ2tsqIFduZ7vZ4P_s-103" value="Не" style="edgeStyle=orthogonalEdgeStyle;rounded=0;orthogonalLoop=1;jettySize=auto;html=1;" edge="1" parent="1" source="UvyZ2tsqIFduZ7vZ4P_s-105" target="UvyZ2tsqIFduZ7vZ4P_s-106">
          <mxGeometry relative="1" as="geometry" />
        </mxCell>
        <mxCell id="UvyZ2tsqIFduZ7vZ4P_s-104" value="Да" style="edgeStyle=orthogonalEdgeStyle;rounded=0;orthogonalLoop=1;jettySize=auto;html=1;" edge="1" parent="1" source="UvyZ2tsqIFduZ7vZ4P_s-105" target="UvyZ2tsqIFduZ7vZ4P_s-107">
          <mxGeometry relative="1" as="geometry" />
        </mxCell>
        <mxCell id="UvyZ2tsqIFduZ7vZ4P_s-105" value="OK ли е?" style="rhombus;whiteSpace=wrap;html=1;" vertex="1" parent="1">
          <mxGeometry x="928.5" y="850" width="80" height="80" as="geometry" />
        </mxCell>
        <mxCell id="UvyZ2tsqIFduZ7vZ4P_s-106" value="Намери проблема" style="rounded=1;whiteSpace=wrap;html=1;fillColor=#e1d5e7;strokeColor=#9673a6;" vertex="1" parent="1">
          <mxGeometry x="1049" y="860" width="120" height="60" as="geometry" />
        </mxCell>
        <mxCell id="UvyZ2tsqIFduZ7vZ4P_s-121" style="edgeStyle=orthogonalEdgeStyle;rounded=0;orthogonalLoop=1;jettySize=auto;html=1;" edge="1" parent="1" source="UvyZ2tsqIFduZ7vZ4P_s-107" target="UvyZ2tsqIFduZ7vZ4P_s-110">
          <mxGeometry relative="1" as="geometry" />
        </mxCell>
        <mxCell id="UvyZ2tsqIFduZ7vZ4P_s-107" value="CTRL+A+D" style="rounded=1;whiteSpace=wrap;html=1;fillColor=#dae8fc;strokeColor=#6c8ebf;" vertex="1" parent="1">
          <mxGeometry x="898" y="980" width="140" height="60" as="geometry" />
        </mxCell>
        <mxCell id="UvyZ2tsqIFduZ7vZ4P_s-109" style="edgeStyle=orthogonalEdgeStyle;rounded=0;orthogonalLoop=1;jettySize=auto;html=1;entryX=0;entryY=0.5;entryDx=0;entryDy=0;" edge="1" parent="1" source="UvyZ2tsqIFduZ7vZ4P_s-110" target="UvyZ2tsqIFduZ7vZ4P_s-112">
          <mxGeometry relative="1" as="geometry" />
        </mxCell>
        <mxCell id="UvyZ2tsqIFduZ7vZ4P_s-110" value="отваряме screen 5&lt;br&gt;(screen)" style="rounded=1;whiteSpace=wrap;html=1;fillColor=#dae8fc;strokeColor=#6c8ebf;" vertex="1" parent="1">
          <mxGeometry x="380.5" y="1061" width="120" height="60" as="geometry" />
        </mxCell>
        <mxCell id="UvyZ2tsqIFduZ7vZ4P_s-111" style="edgeStyle=orthogonalEdgeStyle;rounded=0;orthogonalLoop=1;jettySize=auto;html=1;" edge="1" parent="1" source="UvyZ2tsqIFduZ7vZ4P_s-112" target="UvyZ2tsqIFduZ7vZ4P_s-114">
          <mxGeometry relative="1" as="geometry" />
        </mxCell>
        <mxCell id="UvyZ2tsqIFduZ7vZ4P_s-112" value="Продължаваме с alertmanager" style="rounded=1;whiteSpace=wrap;html=1;fillColor=#fff2cc;strokeColor=#d6b656;" vertex="1" parent="1">
          <mxGeometry x="540.5" y="1061" width="120" height="60" as="geometry" />
        </mxCell>
        <mxCell id="UvyZ2tsqIFduZ7vZ4P_s-113" value="" style="edgeStyle=orthogonalEdgeStyle;rounded=0;orthogonalLoop=1;jettySize=auto;html=1;" edge="1" parent="1" source="UvyZ2tsqIFduZ7vZ4P_s-114" target="UvyZ2tsqIFduZ7vZ4P_s-118">
          <mxGeometry relative="1" as="geometry" />
        </mxCell>
        <mxCell id="UvyZ2tsqIFduZ7vZ4P_s-114" value="пишем&lt;br&gt;systemctl status alertmanager" style="rounded=1;whiteSpace=wrap;html=1;fillColor=#dae8fc;strokeColor=#6c8ebf;" vertex="1" parent="1">
          <mxGeometry x="690.5" y="1061" width="190" height="60" as="geometry" />
        </mxCell>
        <mxCell id="UvyZ2tsqIFduZ7vZ4P_s-115" style="edgeStyle=orthogonalEdgeStyle;rounded=0;orthogonalLoop=1;jettySize=auto;html=1;" edge="1" parent="1" source="UvyZ2tsqIFduZ7vZ4P_s-118" target="UvyZ2tsqIFduZ7vZ4P_s-119">
          <mxGeometry relative="1" as="geometry" />
        </mxCell>
        <mxCell id="UvyZ2tsqIFduZ7vZ4P_s-116" value="Не" style="edgeStyle=orthogonalEdgeStyle;rounded=0;orthogonalLoop=1;jettySize=auto;html=1;" edge="1" parent="1" source="UvyZ2tsqIFduZ7vZ4P_s-118" target="UvyZ2tsqIFduZ7vZ4P_s-119">
          <mxGeometry relative="1" as="geometry" />
        </mxCell>
        <mxCell id="UvyZ2tsqIFduZ7vZ4P_s-117" value="Да" style="edgeStyle=orthogonalEdgeStyle;rounded=0;orthogonalLoop=1;jettySize=auto;html=1;" edge="1" parent="1" source="UvyZ2tsqIFduZ7vZ4P_s-118" target="UvyZ2tsqIFduZ7vZ4P_s-120">
          <mxGeometry relative="1" as="geometry" />
        </mxCell>
        <mxCell id="UvyZ2tsqIFduZ7vZ4P_s-118" value="OK ли е?" style="rhombus;whiteSpace=wrap;html=1;" vertex="1" parent="1">
          <mxGeometry x="929" y="1051" width="80" height="80" as="geometry" />
        </mxCell>
        <mxCell id="UvyZ2tsqIFduZ7vZ4P_s-123" style="edgeStyle=orthogonalEdgeStyle;rounded=0;orthogonalLoop=1;jettySize=auto;html=1;" edge="1" parent="1" source="UvyZ2tsqIFduZ7vZ4P_s-119" target="UvyZ2tsqIFduZ7vZ4P_s-122">
          <mxGeometry relative="1" as="geometry" />
        </mxCell>
        <mxCell id="UvyZ2tsqIFduZ7vZ4P_s-119" value="Намери проблема" style="rounded=1;whiteSpace=wrap;html=1;fillColor=#e1d5e7;strokeColor=#9673a6;" vertex="1" parent="1">
          <mxGeometry x="1049.5" y="1061" width="120" height="60" as="geometry" />
        </mxCell>
        <mxCell id="UvyZ2tsqIFduZ7vZ4P_s-155" style="edgeStyle=orthogonalEdgeStyle;rounded=0;orthogonalLoop=1;jettySize=auto;html=1;entryX=0.5;entryY=0;entryDx=0;entryDy=0;" edge="1" parent="1" source="UvyZ2tsqIFduZ7vZ4P_s-120" target="UvyZ2tsqIFduZ7vZ4P_s-134">
          <mxGeometry relative="1" as="geometry">
            <Array as="points">
              <mxPoint x="969" y="1255" />
              <mxPoint x="440" y="1255" />
            </Array>
          </mxGeometry>
        </mxCell>
        <mxCell id="UvyZ2tsqIFduZ7vZ4P_s-120" value="CTRL+A+D" style="rounded=1;whiteSpace=wrap;html=1;fillColor=#dae8fc;strokeColor=#6c8ebf;" vertex="1" parent="1">
          <mxGeometry x="898.5" y="1181" width="140" height="60" as="geometry" />
        </mxCell>
        <mxCell id="UvyZ2tsqIFduZ7vZ4P_s-131" style="edgeStyle=orthogonalEdgeStyle;rounded=0;orthogonalLoop=1;jettySize=auto;html=1;entryX=0;entryY=0.5;entryDx=0;entryDy=0;" edge="1" parent="1" source="UvyZ2tsqIFduZ7vZ4P_s-122" target="UvyZ2tsqIFduZ7vZ4P_s-130">
          <mxGeometry relative="1" as="geometry" />
        </mxCell>
        <mxCell id="UvyZ2tsqIFduZ7vZ4P_s-122" value="пишем&lt;br&gt;systemctl restart alertmanager" style="rounded=1;whiteSpace=wrap;html=1;fillColor=#dae8fc;strokeColor=#6c8ebf;" vertex="1" parent="1">
          <mxGeometry x="1210" y="1061" width="190" height="60" as="geometry" />
        </mxCell>
        <mxCell id="UvyZ2tsqIFduZ7vZ4P_s-124" value="Не" style="edgeStyle=orthogonalEdgeStyle;rounded=0;orthogonalLoop=1;jettySize=auto;html=1;" edge="1" parent="1" source="UvyZ2tsqIFduZ7vZ4P_s-125" target="UvyZ2tsqIFduZ7vZ4P_s-126">
          <mxGeometry relative="1" as="geometry" />
        </mxCell>
        <mxCell id="UvyZ2tsqIFduZ7vZ4P_s-128" style="edgeStyle=orthogonalEdgeStyle;rounded=0;orthogonalLoop=1;jettySize=auto;html=1;entryX=1;entryY=0.5;entryDx=0;entryDy=0;" edge="1" parent="1" source="UvyZ2tsqIFduZ7vZ4P_s-125" target="UvyZ2tsqIFduZ7vZ4P_s-120">
          <mxGeometry relative="1" as="geometry">
            <Array as="points">
              <mxPoint x="1760" y="1211" />
            </Array>
          </mxGeometry>
        </mxCell>
        <mxCell id="UvyZ2tsqIFduZ7vZ4P_s-129" value="Да" style="edgeLabel;html=1;align=center;verticalAlign=middle;resizable=0;points=[];" vertex="1" connectable="0" parent="UvyZ2tsqIFduZ7vZ4P_s-128">
          <mxGeometry x="0.2367" y="-1" relative="1" as="geometry">
            <mxPoint as="offset" />
          </mxGeometry>
        </mxCell>
        <mxCell id="UvyZ2tsqIFduZ7vZ4P_s-125" value="OK ли е?" style="rhombus;whiteSpace=wrap;html=1;" vertex="1" parent="1">
          <mxGeometry x="1720" y="1051" width="80" height="80" as="geometry" />
        </mxCell>
        <mxCell id="UvyZ2tsqIFduZ7vZ4P_s-126" value="Намери проблема" style="rounded=1;whiteSpace=wrap;html=1;fillColor=#e1d5e7;strokeColor=#9673a6;" vertex="1" parent="1">
          <mxGeometry x="1840.5" y="1061" width="120" height="60" as="geometry" />
        </mxCell>
        <mxCell id="UvyZ2tsqIFduZ7vZ4P_s-132" style="edgeStyle=orthogonalEdgeStyle;rounded=0;orthogonalLoop=1;jettySize=auto;html=1;" edge="1" parent="1" source="UvyZ2tsqIFduZ7vZ4P_s-130" target="UvyZ2tsqIFduZ7vZ4P_s-125">
          <mxGeometry relative="1" as="geometry" />
        </mxCell>
        <mxCell id="UvyZ2tsqIFduZ7vZ4P_s-130" value="пишем&lt;br&gt;systemctl status alertmanager" style="rounded=1;whiteSpace=wrap;html=1;fillColor=#dae8fc;strokeColor=#6c8ebf;" vertex="1" parent="1">
          <mxGeometry x="1470" y="1061" width="190" height="60" as="geometry" />
        </mxCell>
        <mxCell id="UvyZ2tsqIFduZ7vZ4P_s-133" style="edgeStyle=orthogonalEdgeStyle;rounded=0;orthogonalLoop=1;jettySize=auto;html=1;entryX=0;entryY=0.5;entryDx=0;entryDy=0;" edge="1" parent="1" source="UvyZ2tsqIFduZ7vZ4P_s-134" target="UvyZ2tsqIFduZ7vZ4P_s-136">
          <mxGeometry relative="1" as="geometry" />
        </mxCell>
        <mxCell id="UvyZ2tsqIFduZ7vZ4P_s-134" value="отваряме screen 6&lt;br&gt;(screen)" style="rounded=1;whiteSpace=wrap;html=1;fillColor=#dae8fc;strokeColor=#6c8ebf;" vertex="1" parent="1">
          <mxGeometry x="380" y="1305" width="120" height="60" as="geometry" />
        </mxCell>
        <mxCell id="UvyZ2tsqIFduZ7vZ4P_s-135" style="edgeStyle=orthogonalEdgeStyle;rounded=0;orthogonalLoop=1;jettySize=auto;html=1;" edge="1" parent="1" source="UvyZ2tsqIFduZ7vZ4P_s-136" target="UvyZ2tsqIFduZ7vZ4P_s-138">
          <mxGeometry relative="1" as="geometry" />
        </mxCell>
        <mxCell id="UvyZ2tsqIFduZ7vZ4P_s-136" value="Продължаваме с prometheus" style="rounded=1;whiteSpace=wrap;html=1;fillColor=#fff2cc;strokeColor=#d6b656;" vertex="1" parent="1">
          <mxGeometry x="540" y="1305" width="120" height="60" as="geometry" />
        </mxCell>
        <mxCell id="UvyZ2tsqIFduZ7vZ4P_s-137" value="" style="edgeStyle=orthogonalEdgeStyle;rounded=0;orthogonalLoop=1;jettySize=auto;html=1;" edge="1" parent="1" source="UvyZ2tsqIFduZ7vZ4P_s-138" target="UvyZ2tsqIFduZ7vZ4P_s-142">
          <mxGeometry relative="1" as="geometry" />
        </mxCell>
        <mxCell id="UvyZ2tsqIFduZ7vZ4P_s-138" value="пишем&lt;br&gt;systemctl status prometheus" style="rounded=1;whiteSpace=wrap;html=1;fillColor=#dae8fc;strokeColor=#6c8ebf;" vertex="1" parent="1">
          <mxGeometry x="690" y="1305" width="190" height="60" as="geometry" />
        </mxCell>
        <mxCell id="UvyZ2tsqIFduZ7vZ4P_s-139" style="edgeStyle=orthogonalEdgeStyle;rounded=0;orthogonalLoop=1;jettySize=auto;html=1;" edge="1" parent="1" source="UvyZ2tsqIFduZ7vZ4P_s-142" target="UvyZ2tsqIFduZ7vZ4P_s-144">
          <mxGeometry relative="1" as="geometry" />
        </mxCell>
        <mxCell id="UvyZ2tsqIFduZ7vZ4P_s-140" value="Не" style="edgeStyle=orthogonalEdgeStyle;rounded=0;orthogonalLoop=1;jettySize=auto;html=1;" edge="1" parent="1" source="UvyZ2tsqIFduZ7vZ4P_s-142" target="UvyZ2tsqIFduZ7vZ4P_s-144">
          <mxGeometry relative="1" as="geometry" />
        </mxCell>
        <mxCell id="UvyZ2tsqIFduZ7vZ4P_s-141" value="Да" style="edgeStyle=orthogonalEdgeStyle;rounded=0;orthogonalLoop=1;jettySize=auto;html=1;" edge="1" parent="1" source="UvyZ2tsqIFduZ7vZ4P_s-142" target="UvyZ2tsqIFduZ7vZ4P_s-145">
          <mxGeometry relative="1" as="geometry" />
        </mxCell>
        <mxCell id="UvyZ2tsqIFduZ7vZ4P_s-142" value="OK ли е?" style="rhombus;whiteSpace=wrap;html=1;" vertex="1" parent="1">
          <mxGeometry x="928.5" y="1295" width="80" height="80" as="geometry" />
        </mxCell>
        <mxCell id="UvyZ2tsqIFduZ7vZ4P_s-143" style="edgeStyle=orthogonalEdgeStyle;rounded=0;orthogonalLoop=1;jettySize=auto;html=1;" edge="1" parent="1" source="UvyZ2tsqIFduZ7vZ4P_s-144" target="UvyZ2tsqIFduZ7vZ4P_s-147">
          <mxGeometry relative="1" as="geometry" />
        </mxCell>
        <mxCell id="UvyZ2tsqIFduZ7vZ4P_s-144" value="Намери проблема" style="rounded=1;whiteSpace=wrap;html=1;fillColor=#e1d5e7;strokeColor=#9673a6;" vertex="1" parent="1">
          <mxGeometry x="1049" y="1305" width="120" height="60" as="geometry" />
        </mxCell>
        <mxCell id="UvyZ2tsqIFduZ7vZ4P_s-178" style="edgeStyle=orthogonalEdgeStyle;rounded=0;orthogonalLoop=1;jettySize=auto;html=1;entryX=0.5;entryY=0;entryDx=0;entryDy=0;" edge="1" parent="1" source="UvyZ2tsqIFduZ7vZ4P_s-145" target="UvyZ2tsqIFduZ7vZ4P_s-157">
          <mxGeometry relative="1" as="geometry">
            <Array as="points">
              <mxPoint x="968" y="1505" />
              <mxPoint x="440" y="1505" />
            </Array>
          </mxGeometry>
        </mxCell>
        <mxCell id="UvyZ2tsqIFduZ7vZ4P_s-145" value="CTRL+A+D" style="rounded=1;whiteSpace=wrap;html=1;fillColor=#dae8fc;strokeColor=#6c8ebf;" vertex="1" parent="1">
          <mxGeometry x="898" y="1425" width="140" height="60" as="geometry" />
        </mxCell>
        <mxCell id="UvyZ2tsqIFduZ7vZ4P_s-146" style="edgeStyle=orthogonalEdgeStyle;rounded=0;orthogonalLoop=1;jettySize=auto;html=1;entryX=0;entryY=0.5;entryDx=0;entryDy=0;" edge="1" parent="1" source="UvyZ2tsqIFduZ7vZ4P_s-147" target="UvyZ2tsqIFduZ7vZ4P_s-154">
          <mxGeometry relative="1" as="geometry" />
        </mxCell>
        <mxCell id="UvyZ2tsqIFduZ7vZ4P_s-147" value="пишем&lt;br&gt;systemctl restart prometheus" style="rounded=1;whiteSpace=wrap;html=1;fillColor=#dae8fc;strokeColor=#6c8ebf;" vertex="1" parent="1">
          <mxGeometry x="1209.5" y="1305" width="190" height="60" as="geometry" />
        </mxCell>
        <mxCell id="UvyZ2tsqIFduZ7vZ4P_s-148" value="Не" style="edgeStyle=orthogonalEdgeStyle;rounded=0;orthogonalLoop=1;jettySize=auto;html=1;" edge="1" parent="1" source="UvyZ2tsqIFduZ7vZ4P_s-151" target="UvyZ2tsqIFduZ7vZ4P_s-152">
          <mxGeometry relative="1" as="geometry" />
        </mxCell>
        <mxCell id="UvyZ2tsqIFduZ7vZ4P_s-149" style="edgeStyle=orthogonalEdgeStyle;rounded=0;orthogonalLoop=1;jettySize=auto;html=1;entryX=1;entryY=0.5;entryDx=0;entryDy=0;" edge="1" parent="1" source="UvyZ2tsqIFduZ7vZ4P_s-151" target="UvyZ2tsqIFduZ7vZ4P_s-145">
          <mxGeometry relative="1" as="geometry">
            <Array as="points">
              <mxPoint x="1759.5" y="1455" />
            </Array>
          </mxGeometry>
        </mxCell>
        <mxCell id="UvyZ2tsqIFduZ7vZ4P_s-150" value="Да" style="edgeLabel;html=1;align=center;verticalAlign=middle;resizable=0;points=[];" vertex="1" connectable="0" parent="UvyZ2tsqIFduZ7vZ4P_s-149">
          <mxGeometry x="0.2367" y="-1" relative="1" as="geometry">
            <mxPoint as="offset" />
          </mxGeometry>
        </mxCell>
        <mxCell id="UvyZ2tsqIFduZ7vZ4P_s-151" value="OK ли е?" style="rhombus;whiteSpace=wrap;html=1;" vertex="1" parent="1">
          <mxGeometry x="1719.5" y="1295" width="80" height="80" as="geometry" />
        </mxCell>
        <mxCell id="UvyZ2tsqIFduZ7vZ4P_s-152" value="Намери проблема" style="rounded=1;whiteSpace=wrap;html=1;fillColor=#e1d5e7;strokeColor=#9673a6;" vertex="1" parent="1">
          <mxGeometry x="1840" y="1305" width="120" height="60" as="geometry" />
        </mxCell>
        <mxCell id="UvyZ2tsqIFduZ7vZ4P_s-153" style="edgeStyle=orthogonalEdgeStyle;rounded=0;orthogonalLoop=1;jettySize=auto;html=1;" edge="1" parent="1" source="UvyZ2tsqIFduZ7vZ4P_s-154" target="UvyZ2tsqIFduZ7vZ4P_s-151">
          <mxGeometry relative="1" as="geometry" />
        </mxCell>
        <mxCell id="UvyZ2tsqIFduZ7vZ4P_s-154" value="пишем&lt;br&gt;systemctl status prometheus" style="rounded=1;whiteSpace=wrap;html=1;fillColor=#dae8fc;strokeColor=#6c8ebf;" vertex="1" parent="1">
          <mxGeometry x="1469.5" y="1305" width="190" height="60" as="geometry" />
        </mxCell>
        <mxCell id="UvyZ2tsqIFduZ7vZ4P_s-156" style="edgeStyle=orthogonalEdgeStyle;rounded=0;orthogonalLoop=1;jettySize=auto;html=1;entryX=0;entryY=0.5;entryDx=0;entryDy=0;" edge="1" parent="1" source="UvyZ2tsqIFduZ7vZ4P_s-157" target="UvyZ2tsqIFduZ7vZ4P_s-159">
          <mxGeometry relative="1" as="geometry" />
        </mxCell>
        <mxCell id="UvyZ2tsqIFduZ7vZ4P_s-157" value="отваряме screen 7&lt;br&gt;(screen)" style="rounded=1;whiteSpace=wrap;html=1;fillColor=#dae8fc;strokeColor=#6c8ebf;" vertex="1" parent="1">
          <mxGeometry x="380" y="1535" width="120" height="60" as="geometry" />
        </mxCell>
        <mxCell id="UvyZ2tsqIFduZ7vZ4P_s-158" style="edgeStyle=orthogonalEdgeStyle;rounded=0;orthogonalLoop=1;jettySize=auto;html=1;" edge="1" parent="1" source="UvyZ2tsqIFduZ7vZ4P_s-159" target="UvyZ2tsqIFduZ7vZ4P_s-161">
          <mxGeometry relative="1" as="geometry" />
        </mxCell>
        <mxCell id="UvyZ2tsqIFduZ7vZ4P_s-159" value="Продължаваме с &lt;br&gt;loki" style="rounded=1;whiteSpace=wrap;html=1;fillColor=#fff2cc;strokeColor=#d6b656;" vertex="1" parent="1">
          <mxGeometry x="540" y="1535" width="120" height="60" as="geometry" />
        </mxCell>
        <mxCell id="UvyZ2tsqIFduZ7vZ4P_s-160" value="" style="edgeStyle=orthogonalEdgeStyle;rounded=0;orthogonalLoop=1;jettySize=auto;html=1;" edge="1" parent="1" source="UvyZ2tsqIFduZ7vZ4P_s-161" target="UvyZ2tsqIFduZ7vZ4P_s-165">
          <mxGeometry relative="1" as="geometry" />
        </mxCell>
        <mxCell id="UvyZ2tsqIFduZ7vZ4P_s-161" value="пишем&lt;br&gt;systemctl status loki" style="rounded=1;whiteSpace=wrap;html=1;fillColor=#dae8fc;strokeColor=#6c8ebf;" vertex="1" parent="1">
          <mxGeometry x="690" y="1535" width="190" height="60" as="geometry" />
        </mxCell>
        <mxCell id="UvyZ2tsqIFduZ7vZ4P_s-162" style="edgeStyle=orthogonalEdgeStyle;rounded=0;orthogonalLoop=1;jettySize=auto;html=1;" edge="1" parent="1" source="UvyZ2tsqIFduZ7vZ4P_s-165" target="UvyZ2tsqIFduZ7vZ4P_s-167">
          <mxGeometry relative="1" as="geometry" />
        </mxCell>
        <mxCell id="UvyZ2tsqIFduZ7vZ4P_s-163" value="Не" style="edgeStyle=orthogonalEdgeStyle;rounded=0;orthogonalLoop=1;jettySize=auto;html=1;" edge="1" parent="1" source="UvyZ2tsqIFduZ7vZ4P_s-165" target="UvyZ2tsqIFduZ7vZ4P_s-167">
          <mxGeometry relative="1" as="geometry" />
        </mxCell>
        <mxCell id="UvyZ2tsqIFduZ7vZ4P_s-164" value="Да" style="edgeStyle=orthogonalEdgeStyle;rounded=0;orthogonalLoop=1;jettySize=auto;html=1;" edge="1" parent="1" source="UvyZ2tsqIFduZ7vZ4P_s-165" target="UvyZ2tsqIFduZ7vZ4P_s-168">
          <mxGeometry relative="1" as="geometry" />
        </mxCell>
        <mxCell id="UvyZ2tsqIFduZ7vZ4P_s-165" value="OK ли е?" style="rhombus;whiteSpace=wrap;html=1;" vertex="1" parent="1">
          <mxGeometry x="928.5" y="1525" width="80" height="80" as="geometry" />
        </mxCell>
        <mxCell id="UvyZ2tsqIFduZ7vZ4P_s-166" style="edgeStyle=orthogonalEdgeStyle;rounded=0;orthogonalLoop=1;jettySize=auto;html=1;" edge="1" parent="1" source="UvyZ2tsqIFduZ7vZ4P_s-167" target="UvyZ2tsqIFduZ7vZ4P_s-170">
          <mxGeometry relative="1" as="geometry" />
        </mxCell>
        <mxCell id="UvyZ2tsqIFduZ7vZ4P_s-167" value="Намери проблема" style="rounded=1;whiteSpace=wrap;html=1;fillColor=#e1d5e7;strokeColor=#9673a6;" vertex="1" parent="1">
          <mxGeometry x="1049" y="1535" width="120" height="60" as="geometry" />
        </mxCell>
        <mxCell id="UvyZ2tsqIFduZ7vZ4P_s-201" style="edgeStyle=orthogonalEdgeStyle;rounded=0;orthogonalLoop=1;jettySize=auto;html=1;entryX=0.5;entryY=0;entryDx=0;entryDy=0;" edge="1" parent="1" source="UvyZ2tsqIFduZ7vZ4P_s-168" target="UvyZ2tsqIFduZ7vZ4P_s-180">
          <mxGeometry relative="1" as="geometry">
            <Array as="points">
              <mxPoint x="968" y="1725" />
              <mxPoint x="441" y="1725" />
            </Array>
          </mxGeometry>
        </mxCell>
        <mxCell id="UvyZ2tsqIFduZ7vZ4P_s-168" value="CTRL+A+D" style="rounded=1;whiteSpace=wrap;html=1;fillColor=#dae8fc;strokeColor=#6c8ebf;" vertex="1" parent="1">
          <mxGeometry x="898" y="1655" width="140" height="60" as="geometry" />
        </mxCell>
        <mxCell id="UvyZ2tsqIFduZ7vZ4P_s-169" style="edgeStyle=orthogonalEdgeStyle;rounded=0;orthogonalLoop=1;jettySize=auto;html=1;entryX=0;entryY=0.5;entryDx=0;entryDy=0;" edge="1" parent="1" source="UvyZ2tsqIFduZ7vZ4P_s-170" target="UvyZ2tsqIFduZ7vZ4P_s-177">
          <mxGeometry relative="1" as="geometry" />
        </mxCell>
        <mxCell id="UvyZ2tsqIFduZ7vZ4P_s-170" value="пишем&lt;br&gt;systemctl restart loki" style="rounded=1;whiteSpace=wrap;html=1;fillColor=#dae8fc;strokeColor=#6c8ebf;" vertex="1" parent="1">
          <mxGeometry x="1209.5" y="1535" width="190" height="60" as="geometry" />
        </mxCell>
        <mxCell id="UvyZ2tsqIFduZ7vZ4P_s-171" value="Не" style="edgeStyle=orthogonalEdgeStyle;rounded=0;orthogonalLoop=1;jettySize=auto;html=1;" edge="1" parent="1" source="UvyZ2tsqIFduZ7vZ4P_s-174" target="UvyZ2tsqIFduZ7vZ4P_s-175">
          <mxGeometry relative="1" as="geometry" />
        </mxCell>
        <mxCell id="UvyZ2tsqIFduZ7vZ4P_s-172" style="edgeStyle=orthogonalEdgeStyle;rounded=0;orthogonalLoop=1;jettySize=auto;html=1;entryX=1;entryY=0.5;entryDx=0;entryDy=0;" edge="1" parent="1" source="UvyZ2tsqIFduZ7vZ4P_s-174" target="UvyZ2tsqIFduZ7vZ4P_s-168">
          <mxGeometry relative="1" as="geometry">
            <Array as="points">
              <mxPoint x="1759.5" y="1685" />
            </Array>
          </mxGeometry>
        </mxCell>
        <mxCell id="UvyZ2tsqIFduZ7vZ4P_s-173" value="Да" style="edgeLabel;html=1;align=center;verticalAlign=middle;resizable=0;points=[];" vertex="1" connectable="0" parent="UvyZ2tsqIFduZ7vZ4P_s-172">
          <mxGeometry x="0.2367" y="-1" relative="1" as="geometry">
            <mxPoint as="offset" />
          </mxGeometry>
        </mxCell>
        <mxCell id="UvyZ2tsqIFduZ7vZ4P_s-174" value="OK ли е?" style="rhombus;whiteSpace=wrap;html=1;" vertex="1" parent="1">
          <mxGeometry x="1719.5" y="1525" width="80" height="80" as="geometry" />
        </mxCell>
        <mxCell id="UvyZ2tsqIFduZ7vZ4P_s-175" value="Намери проблема" style="rounded=1;whiteSpace=wrap;html=1;fillColor=#e1d5e7;strokeColor=#9673a6;" vertex="1" parent="1">
          <mxGeometry x="1840" y="1535" width="120" height="60" as="geometry" />
        </mxCell>
        <mxCell id="UvyZ2tsqIFduZ7vZ4P_s-176" style="edgeStyle=orthogonalEdgeStyle;rounded=0;orthogonalLoop=1;jettySize=auto;html=1;" edge="1" parent="1" source="UvyZ2tsqIFduZ7vZ4P_s-177" target="UvyZ2tsqIFduZ7vZ4P_s-174">
          <mxGeometry relative="1" as="geometry" />
        </mxCell>
        <mxCell id="UvyZ2tsqIFduZ7vZ4P_s-177" value="пишем&lt;br&gt;systemctl status loki" style="rounded=1;whiteSpace=wrap;html=1;fillColor=#dae8fc;strokeColor=#6c8ebf;" vertex="1" parent="1">
          <mxGeometry x="1469.5" y="1535" width="190" height="60" as="geometry" />
        </mxCell>
        <mxCell id="UvyZ2tsqIFduZ7vZ4P_s-179" style="edgeStyle=orthogonalEdgeStyle;rounded=0;orthogonalLoop=1;jettySize=auto;html=1;entryX=0;entryY=0.5;entryDx=0;entryDy=0;" edge="1" parent="1" source="UvyZ2tsqIFduZ7vZ4P_s-180" target="UvyZ2tsqIFduZ7vZ4P_s-182">
          <mxGeometry relative="1" as="geometry" />
        </mxCell>
        <mxCell id="UvyZ2tsqIFduZ7vZ4P_s-180" value="отваряме screen 8&lt;br&gt;(screen)" style="rounded=1;whiteSpace=wrap;html=1;fillColor=#dae8fc;strokeColor=#6c8ebf;" vertex="1" parent="1">
          <mxGeometry x="380.5" y="1765" width="120" height="60" as="geometry" />
        </mxCell>
        <mxCell id="UvyZ2tsqIFduZ7vZ4P_s-181" style="edgeStyle=orthogonalEdgeStyle;rounded=0;orthogonalLoop=1;jettySize=auto;html=1;" edge="1" parent="1" source="UvyZ2tsqIFduZ7vZ4P_s-182" target="UvyZ2tsqIFduZ7vZ4P_s-184">
          <mxGeometry relative="1" as="geometry" />
        </mxCell>
        <mxCell id="UvyZ2tsqIFduZ7vZ4P_s-182" value="Продължаваме с &lt;br&gt;promtail" style="rounded=1;whiteSpace=wrap;html=1;fillColor=#fff2cc;strokeColor=#d6b656;" vertex="1" parent="1">
          <mxGeometry x="540.5" y="1765" width="120" height="60" as="geometry" />
        </mxCell>
        <mxCell id="UvyZ2tsqIFduZ7vZ4P_s-183" value="" style="edgeStyle=orthogonalEdgeStyle;rounded=0;orthogonalLoop=1;jettySize=auto;html=1;" edge="1" parent="1" source="UvyZ2tsqIFduZ7vZ4P_s-184" target="UvyZ2tsqIFduZ7vZ4P_s-188">
          <mxGeometry relative="1" as="geometry" />
        </mxCell>
        <mxCell id="UvyZ2tsqIFduZ7vZ4P_s-184" value="пишем&lt;br&gt;systemctl status promtail" style="rounded=1;whiteSpace=wrap;html=1;fillColor=#dae8fc;strokeColor=#6c8ebf;" vertex="1" parent="1">
          <mxGeometry x="690.5" y="1765" width="190" height="60" as="geometry" />
        </mxCell>
        <mxCell id="UvyZ2tsqIFduZ7vZ4P_s-185" style="edgeStyle=orthogonalEdgeStyle;rounded=0;orthogonalLoop=1;jettySize=auto;html=1;" edge="1" parent="1" source="UvyZ2tsqIFduZ7vZ4P_s-188" target="UvyZ2tsqIFduZ7vZ4P_s-190">
          <mxGeometry relative="1" as="geometry" />
        </mxCell>
        <mxCell id="UvyZ2tsqIFduZ7vZ4P_s-186" value="Не" style="edgeStyle=orthogonalEdgeStyle;rounded=0;orthogonalLoop=1;jettySize=auto;html=1;" edge="1" parent="1" source="UvyZ2tsqIFduZ7vZ4P_s-188" target="UvyZ2tsqIFduZ7vZ4P_s-190">
          <mxGeometry relative="1" as="geometry" />
        </mxCell>
        <mxCell id="UvyZ2tsqIFduZ7vZ4P_s-187" value="Да" style="edgeStyle=orthogonalEdgeStyle;rounded=0;orthogonalLoop=1;jettySize=auto;html=1;" edge="1" parent="1" source="UvyZ2tsqIFduZ7vZ4P_s-188" target="UvyZ2tsqIFduZ7vZ4P_s-191">
          <mxGeometry relative="1" as="geometry" />
        </mxCell>
        <mxCell id="UvyZ2tsqIFduZ7vZ4P_s-188" value="OK ли е?" style="rhombus;whiteSpace=wrap;html=1;" vertex="1" parent="1">
          <mxGeometry x="929" y="1755" width="80" height="80" as="geometry" />
        </mxCell>
        <mxCell id="UvyZ2tsqIFduZ7vZ4P_s-189" style="edgeStyle=orthogonalEdgeStyle;rounded=0;orthogonalLoop=1;jettySize=auto;html=1;" edge="1" parent="1" source="UvyZ2tsqIFduZ7vZ4P_s-190" target="UvyZ2tsqIFduZ7vZ4P_s-193">
          <mxGeometry relative="1" as="geometry" />
        </mxCell>
        <mxCell id="UvyZ2tsqIFduZ7vZ4P_s-190" value="Намери проблема" style="rounded=1;whiteSpace=wrap;html=1;fillColor=#e1d5e7;strokeColor=#9673a6;" vertex="1" parent="1">
          <mxGeometry x="1049.5" y="1765" width="120" height="60" as="geometry" />
        </mxCell>
        <mxCell id="UvyZ2tsqIFduZ7vZ4P_s-215" style="edgeStyle=orthogonalEdgeStyle;rounded=0;orthogonalLoop=1;jettySize=auto;html=1;" edge="1" parent="1" source="UvyZ2tsqIFduZ7vZ4P_s-191" target="UvyZ2tsqIFduZ7vZ4P_s-203">
          <mxGeometry relative="1" as="geometry">
            <Array as="points">
              <mxPoint x="968" y="1965" />
              <mxPoint x="441" y="1965" />
            </Array>
          </mxGeometry>
        </mxCell>
        <mxCell id="UvyZ2tsqIFduZ7vZ4P_s-191" value="CTRL+A+D" style="rounded=1;whiteSpace=wrap;html=1;fillColor=#dae8fc;strokeColor=#6c8ebf;" vertex="1" parent="1">
          <mxGeometry x="898.5" y="1885" width="140" height="60" as="geometry" />
        </mxCell>
        <mxCell id="UvyZ2tsqIFduZ7vZ4P_s-192" style="edgeStyle=orthogonalEdgeStyle;rounded=0;orthogonalLoop=1;jettySize=auto;html=1;entryX=0;entryY=0.5;entryDx=0;entryDy=0;" edge="1" parent="1" source="UvyZ2tsqIFduZ7vZ4P_s-193" target="UvyZ2tsqIFduZ7vZ4P_s-200">
          <mxGeometry relative="1" as="geometry" />
        </mxCell>
        <mxCell id="UvyZ2tsqIFduZ7vZ4P_s-193" value="пишем&lt;br&gt;systemctl restart promtail" style="rounded=1;whiteSpace=wrap;html=1;fillColor=#dae8fc;strokeColor=#6c8ebf;" vertex="1" parent="1">
          <mxGeometry x="1210" y="1765" width="190" height="60" as="geometry" />
        </mxCell>
        <mxCell id="UvyZ2tsqIFduZ7vZ4P_s-194" value="Не" style="edgeStyle=orthogonalEdgeStyle;rounded=0;orthogonalLoop=1;jettySize=auto;html=1;" edge="1" parent="1" source="UvyZ2tsqIFduZ7vZ4P_s-197" target="UvyZ2tsqIFduZ7vZ4P_s-198">
          <mxGeometry relative="1" as="geometry" />
        </mxCell>
        <mxCell id="UvyZ2tsqIFduZ7vZ4P_s-195" style="edgeStyle=orthogonalEdgeStyle;rounded=0;orthogonalLoop=1;jettySize=auto;html=1;entryX=1;entryY=0.5;entryDx=0;entryDy=0;" edge="1" parent="1" source="UvyZ2tsqIFduZ7vZ4P_s-197" target="UvyZ2tsqIFduZ7vZ4P_s-191">
          <mxGeometry relative="1" as="geometry">
            <Array as="points">
              <mxPoint x="1760" y="1915" />
            </Array>
          </mxGeometry>
        </mxCell>
        <mxCell id="UvyZ2tsqIFduZ7vZ4P_s-196" value="Да" style="edgeLabel;html=1;align=center;verticalAlign=middle;resizable=0;points=[];" vertex="1" connectable="0" parent="UvyZ2tsqIFduZ7vZ4P_s-195">
          <mxGeometry x="0.2367" y="-1" relative="1" as="geometry">
            <mxPoint as="offset" />
          </mxGeometry>
        </mxCell>
        <mxCell id="UvyZ2tsqIFduZ7vZ4P_s-197" value="OK ли е?" style="rhombus;whiteSpace=wrap;html=1;" vertex="1" parent="1">
          <mxGeometry x="1720" y="1755" width="80" height="80" as="geometry" />
        </mxCell>
        <mxCell id="UvyZ2tsqIFduZ7vZ4P_s-198" value="Намери проблема" style="rounded=1;whiteSpace=wrap;html=1;fillColor=#e1d5e7;strokeColor=#9673a6;" vertex="1" parent="1">
          <mxGeometry x="1840.5" y="1765" width="120" height="60" as="geometry" />
        </mxCell>
        <mxCell id="UvyZ2tsqIFduZ7vZ4P_s-199" style="edgeStyle=orthogonalEdgeStyle;rounded=0;orthogonalLoop=1;jettySize=auto;html=1;" edge="1" parent="1" source="UvyZ2tsqIFduZ7vZ4P_s-200" target="UvyZ2tsqIFduZ7vZ4P_s-197">
          <mxGeometry relative="1" as="geometry" />
        </mxCell>
        <mxCell id="UvyZ2tsqIFduZ7vZ4P_s-200" value="пишем&lt;br&gt;systemctl status promtail" style="rounded=1;whiteSpace=wrap;html=1;fillColor=#dae8fc;strokeColor=#6c8ebf;" vertex="1" parent="1">
          <mxGeometry x="1470" y="1765" width="190" height="60" as="geometry" />
        </mxCell>
        <mxCell id="UvyZ2tsqIFduZ7vZ4P_s-202" style="edgeStyle=orthogonalEdgeStyle;rounded=0;orthogonalLoop=1;jettySize=auto;html=1;entryX=0;entryY=0.5;entryDx=0;entryDy=0;" edge="1" parent="1" source="UvyZ2tsqIFduZ7vZ4P_s-203" target="UvyZ2tsqIFduZ7vZ4P_s-205">
          <mxGeometry relative="1" as="geometry" />
        </mxCell>
        <mxCell id="UvyZ2tsqIFduZ7vZ4P_s-203" value="отваряме screen 9&lt;br&gt;(screen)" style="rounded=1;whiteSpace=wrap;html=1;fillColor=#dae8fc;strokeColor=#6c8ebf;" vertex="1" parent="1">
          <mxGeometry x="380.5" y="1985" width="120" height="60" as="geometry" />
        </mxCell>
        <mxCell id="UvyZ2tsqIFduZ7vZ4P_s-204" style="edgeStyle=orthogonalEdgeStyle;rounded=0;orthogonalLoop=1;jettySize=auto;html=1;" edge="1" parent="1" source="UvyZ2tsqIFduZ7vZ4P_s-205" target="UvyZ2tsqIFduZ7vZ4P_s-207">
          <mxGeometry relative="1" as="geometry" />
        </mxCell>
        <mxCell id="UvyZ2tsqIFduZ7vZ4P_s-205" value="Продължаваме със salesforce_java_integration" style="rounded=1;whiteSpace=wrap;html=1;fillColor=#fff2cc;strokeColor=#d6b656;" vertex="1" parent="1">
          <mxGeometry x="540.5" y="1985" width="159.5" height="60" as="geometry" />
        </mxCell>
        <mxCell id="UvyZ2tsqIFduZ7vZ4P_s-219" style="edgeStyle=orthogonalEdgeStyle;rounded=0;orthogonalLoop=1;jettySize=auto;html=1;" edge="1" parent="1" source="UvyZ2tsqIFduZ7vZ4P_s-207" target="UvyZ2tsqIFduZ7vZ4P_s-217">
          <mxGeometry relative="1" as="geometry" />
        </mxCell>
        <mxCell id="UvyZ2tsqIFduZ7vZ4P_s-207" value="пишем&lt;br&gt;cd /home/Informatica/_Projects_/sap-salesforce-integration/" style="rounded=1;whiteSpace=wrap;html=1;fillColor=#dae8fc;strokeColor=#6c8ebf;" vertex="1" parent="1">
          <mxGeometry x="750" y="1985" width="320" height="60" as="geometry" />
        </mxCell>
        <mxCell id="UvyZ2tsqIFduZ7vZ4P_s-208" style="edgeStyle=orthogonalEdgeStyle;rounded=0;orthogonalLoop=1;jettySize=auto;html=1;entryX=0;entryY=0.5;entryDx=0;entryDy=0;" edge="1" parent="1" source="UvyZ2tsqIFduZ7vZ4P_s-209" target="UvyZ2tsqIFduZ7vZ4P_s-212">
          <mxGeometry x="0.0596" y="-10" relative="1" as="geometry">
            <Array as="points">
              <mxPoint x="1615" y="1950" />
              <mxPoint x="1780" y="1950" />
              <mxPoint x="1780" y="1916" />
            </Array>
            <mxPoint as="offset" />
          </mxGeometry>
        </mxCell>
        <mxCell id="UvyZ2tsqIFduZ7vZ4P_s-209" value="пишем&lt;br&gt;./mvnw -Dquarkus.profile=prod quarkus:dev" style="rounded=1;whiteSpace=wrap;html=1;fillColor=#dae8fc;strokeColor=#6c8ebf;" vertex="1" parent="1">
          <mxGeometry x="1470" y="1985" width="290.5" height="60" as="geometry" />
        </mxCell>
        <mxCell id="UvyZ2tsqIFduZ7vZ4P_s-210" value="Не" style="edgeStyle=orthogonalEdgeStyle;rounded=0;orthogonalLoop=1;jettySize=auto;html=1;" edge="1" parent="1" source="UvyZ2tsqIFduZ7vZ4P_s-212">
          <mxGeometry relative="1" as="geometry">
            <mxPoint x="1941.5" y="1916" as="targetPoint" />
          </mxGeometry>
        </mxCell>
        <mxCell id="UvyZ2tsqIFduZ7vZ4P_s-211" value="Да" style="edgeStyle=orthogonalEdgeStyle;rounded=0;orthogonalLoop=1;jettySize=auto;html=1;" edge="1" parent="1" source="UvyZ2tsqIFduZ7vZ4P_s-212" target="UvyZ2tsqIFduZ7vZ4P_s-214">
          <mxGeometry relative="1" as="geometry" />
        </mxCell>
        <mxCell id="UvyZ2tsqIFduZ7vZ4P_s-212" value="OK ли е?&lt;br&gt;Изписва &lt;br&gt;лого" style="rhombus;whiteSpace=wrap;html=1;" vertex="1" parent="1">
          <mxGeometry x="1821" y="1876" width="80" height="80" as="geometry" />
        </mxCell>
        <mxCell id="UvyZ2tsqIFduZ7vZ4P_s-213" value="Намери проблема" style="rounded=1;whiteSpace=wrap;html=1;fillColor=#e1d5e7;strokeColor=#9673a6;" vertex="1" parent="1">
          <mxGeometry x="1941" y="1886" width="120" height="60" as="geometry" />
        </mxCell>
        <mxCell id="UvyZ2tsqIFduZ7vZ4P_s-239" style="edgeStyle=orthogonalEdgeStyle;rounded=0;orthogonalLoop=1;jettySize=auto;html=1;" edge="1" parent="1" source="UvyZ2tsqIFduZ7vZ4P_s-214" target="UvyZ2tsqIFduZ7vZ4P_s-223">
          <mxGeometry relative="1" as="geometry">
            <Array as="points">
              <mxPoint x="1861" y="2075" />
              <mxPoint x="440" y="2075" />
            </Array>
          </mxGeometry>
        </mxCell>
        <mxCell id="UvyZ2tsqIFduZ7vZ4P_s-214" value="CTRL+A+D" style="rounded=1;whiteSpace=wrap;html=1;fillColor=#dae8fc;strokeColor=#6c8ebf;" vertex="1" parent="1">
          <mxGeometry x="1790.5" y="1985" width="140" height="60" as="geometry" />
        </mxCell>
        <mxCell id="UvyZ2tsqIFduZ7vZ4P_s-216" value="" style="edgeStyle=orthogonalEdgeStyle;rounded=0;orthogonalLoop=1;jettySize=auto;html=1;" edge="1" parent="1" source="UvyZ2tsqIFduZ7vZ4P_s-217" target="UvyZ2tsqIFduZ7vZ4P_s-218">
          <mxGeometry relative="1" as="geometry" />
        </mxCell>
        <mxCell id="UvyZ2tsqIFduZ7vZ4P_s-217" value="пишем&lt;br&gt;source ~/.bash_profile" style="rounded=1;whiteSpace=wrap;html=1;fillColor=#dae8fc;strokeColor=#6c8ebf;" vertex="1" parent="1">
          <mxGeometry x="1110" y="1985" width="140" height="60" as="geometry" />
        </mxCell>
        <mxCell id="UvyZ2tsqIFduZ7vZ4P_s-220" style="edgeStyle=orthogonalEdgeStyle;rounded=0;orthogonalLoop=1;jettySize=auto;html=1;" edge="1" parent="1" source="UvyZ2tsqIFduZ7vZ4P_s-218" target="UvyZ2tsqIFduZ7vZ4P_s-209">
          <mxGeometry relative="1" as="geometry" />
        </mxCell>
        <mxCell id="UvyZ2tsqIFduZ7vZ4P_s-218" value="връща ни &quot;SOURCED&quot;" style="rounded=1;whiteSpace=wrap;html=1;fillColor=#fff2cc;strokeColor=#d6b656;" vertex="1" parent="1">
          <mxGeometry x="1280" y="1985" width="140" height="60" as="geometry" />
        </mxCell>
        <mxCell id="UvyZ2tsqIFduZ7vZ4P_s-222" style="edgeStyle=orthogonalEdgeStyle;rounded=0;orthogonalLoop=1;jettySize=auto;html=1;entryX=0;entryY=0.5;entryDx=0;entryDy=0;" edge="1" parent="1" source="UvyZ2tsqIFduZ7vZ4P_s-223" target="UvyZ2tsqIFduZ7vZ4P_s-225">
          <mxGeometry relative="1" as="geometry" />
        </mxCell>
        <mxCell id="UvyZ2tsqIFduZ7vZ4P_s-223" value="отваряме screen 10&lt;br&gt;(screen)" style="rounded=1;whiteSpace=wrap;html=1;fillColor=#dae8fc;strokeColor=#6c8ebf;" vertex="1" parent="1">
          <mxGeometry x="380" y="2204" width="120" height="60" as="geometry" />
        </mxCell>
        <mxCell id="UvyZ2tsqIFduZ7vZ4P_s-224" style="edgeStyle=orthogonalEdgeStyle;rounded=0;orthogonalLoop=1;jettySize=auto;html=1;" edge="1" parent="1" source="UvyZ2tsqIFduZ7vZ4P_s-225" target="UvyZ2tsqIFduZ7vZ4P_s-227">
          <mxGeometry relative="1" as="geometry" />
        </mxCell>
        <mxCell id="UvyZ2tsqIFduZ7vZ4P_s-225" value="Продължаваме със serbia_backend" style="rounded=1;whiteSpace=wrap;html=1;fillColor=#fff2cc;strokeColor=#d6b656;" vertex="1" parent="1">
          <mxGeometry x="540" y="2204" width="159.5" height="60" as="geometry" />
        </mxCell>
        <mxCell id="UvyZ2tsqIFduZ7vZ4P_s-226" style="edgeStyle=orthogonalEdgeStyle;rounded=0;orthogonalLoop=1;jettySize=auto;html=1;" edge="1" parent="1" source="UvyZ2tsqIFduZ7vZ4P_s-227" target="UvyZ2tsqIFduZ7vZ4P_s-236">
          <mxGeometry relative="1" as="geometry" />
        </mxCell>
        <mxCell id="UvyZ2tsqIFduZ7vZ4P_s-227" value="пишем&lt;br&gt;cd /home/Informatica/_Projects_/serbia-integration/" style="rounded=1;whiteSpace=wrap;html=1;fillColor=#dae8fc;strokeColor=#6c8ebf;" vertex="1" parent="1">
          <mxGeometry x="749.5" y="2204" width="320" height="60" as="geometry" />
        </mxCell>
        <mxCell id="UvyZ2tsqIFduZ7vZ4P_s-228" style="edgeStyle=orthogonalEdgeStyle;rounded=0;orthogonalLoop=1;jettySize=auto;html=1;entryX=0;entryY=0.5;entryDx=0;entryDy=0;" edge="1" parent="1" source="UvyZ2tsqIFduZ7vZ4P_s-229" target="UvyZ2tsqIFduZ7vZ4P_s-232">
          <mxGeometry relative="1" as="geometry">
            <Array as="points">
              <mxPoint x="1614.5" y="2135" />
            </Array>
          </mxGeometry>
        </mxCell>
        <mxCell id="UvyZ2tsqIFduZ7vZ4P_s-229" value="пишем&lt;br&gt;./mvnw -Dquarkus.profile=prod quarkus:dev" style="rounded=1;whiteSpace=wrap;html=1;fillColor=#dae8fc;strokeColor=#6c8ebf;" vertex="1" parent="1">
          <mxGeometry x="1469.5" y="2204" width="290.5" height="60" as="geometry" />
        </mxCell>
        <mxCell id="UvyZ2tsqIFduZ7vZ4P_s-230" value="Не" style="edgeStyle=orthogonalEdgeStyle;rounded=0;orthogonalLoop=1;jettySize=auto;html=1;" edge="1" parent="1" source="UvyZ2tsqIFduZ7vZ4P_s-232" target="UvyZ2tsqIFduZ7vZ4P_s-233">
          <mxGeometry relative="1" as="geometry" />
        </mxCell>
        <mxCell id="UvyZ2tsqIFduZ7vZ4P_s-231" value="Да" style="edgeStyle=orthogonalEdgeStyle;rounded=0;orthogonalLoop=1;jettySize=auto;html=1;" edge="1" parent="1" source="UvyZ2tsqIFduZ7vZ4P_s-232" target="UvyZ2tsqIFduZ7vZ4P_s-234">
          <mxGeometry relative="1" as="geometry" />
        </mxCell>
        <mxCell id="UvyZ2tsqIFduZ7vZ4P_s-232" value="OK ли е?&lt;br&gt;Изписва &lt;br&gt;лого" style="rhombus;whiteSpace=wrap;html=1;" vertex="1" parent="1">
          <mxGeometry x="1820.5" y="2095" width="80" height="80" as="geometry" />
        </mxCell>
        <mxCell id="UvyZ2tsqIFduZ7vZ4P_s-233" value="Намери проблема" style="rounded=1;whiteSpace=wrap;html=1;fillColor=#e1d5e7;strokeColor=#9673a6;" vertex="1" parent="1">
          <mxGeometry x="1941" y="2105" width="120" height="60" as="geometry" />
        </mxCell>
        <mxCell id="UvyZ2tsqIFduZ7vZ4P_s-257" style="edgeStyle=orthogonalEdgeStyle;rounded=0;orthogonalLoop=1;jettySize=auto;html=1;entryX=0.5;entryY=0;entryDx=0;entryDy=0;" edge="1" parent="1" source="UvyZ2tsqIFduZ7vZ4P_s-234" target="UvyZ2tsqIFduZ7vZ4P_s-241">
          <mxGeometry relative="1" as="geometry">
            <Array as="points">
              <mxPoint x="1860" y="2295" />
              <mxPoint x="450" y="2295" />
            </Array>
          </mxGeometry>
        </mxCell>
        <mxCell id="UvyZ2tsqIFduZ7vZ4P_s-234" value="CTRL+A+D" style="rounded=1;whiteSpace=wrap;html=1;fillColor=#dae8fc;strokeColor=#6c8ebf;" vertex="1" parent="1">
          <mxGeometry x="1790" y="2204" width="140" height="60" as="geometry" />
        </mxCell>
        <mxCell id="UvyZ2tsqIFduZ7vZ4P_s-235" value="" style="edgeStyle=orthogonalEdgeStyle;rounded=0;orthogonalLoop=1;jettySize=auto;html=1;" edge="1" parent="1" source="UvyZ2tsqIFduZ7vZ4P_s-236" target="UvyZ2tsqIFduZ7vZ4P_s-238">
          <mxGeometry relative="1" as="geometry" />
        </mxCell>
        <mxCell id="UvyZ2tsqIFduZ7vZ4P_s-236" value="пишем&lt;br&gt;source ~/.bash_profile" style="rounded=1;whiteSpace=wrap;html=1;fillColor=#dae8fc;strokeColor=#6c8ebf;" vertex="1" parent="1">
          <mxGeometry x="1109.5" y="2204" width="140" height="60" as="geometry" />
        </mxCell>
        <mxCell id="UvyZ2tsqIFduZ7vZ4P_s-237" style="edgeStyle=orthogonalEdgeStyle;rounded=0;orthogonalLoop=1;jettySize=auto;html=1;" edge="1" parent="1" source="UvyZ2tsqIFduZ7vZ4P_s-238" target="UvyZ2tsqIFduZ7vZ4P_s-229">
          <mxGeometry relative="1" as="geometry" />
        </mxCell>
        <mxCell id="UvyZ2tsqIFduZ7vZ4P_s-238" value="връща ни &quot;SOURCED&quot;" style="rounded=1;whiteSpace=wrap;html=1;fillColor=#fff2cc;strokeColor=#d6b656;" vertex="1" parent="1">
          <mxGeometry x="1279.5" y="2204" width="140" height="60" as="geometry" />
        </mxCell>
        <mxCell id="UvyZ2tsqIFduZ7vZ4P_s-240" style="edgeStyle=orthogonalEdgeStyle;rounded=0;orthogonalLoop=1;jettySize=auto;html=1;entryX=0;entryY=0.5;entryDx=0;entryDy=0;" edge="1" parent="1" source="UvyZ2tsqIFduZ7vZ4P_s-241" target="UvyZ2tsqIFduZ7vZ4P_s-243">
          <mxGeometry relative="1" as="geometry" />
        </mxCell>
        <mxCell id="UvyZ2tsqIFduZ7vZ4P_s-241" value="отваряме screen 11&lt;br&gt;(screen)" style="rounded=1;whiteSpace=wrap;html=1;fillColor=#dae8fc;strokeColor=#6c8ebf;" vertex="1" parent="1">
          <mxGeometry x="390" y="2414" width="120" height="60" as="geometry" />
        </mxCell>
        <mxCell id="UvyZ2tsqIFduZ7vZ4P_s-242" style="edgeStyle=orthogonalEdgeStyle;rounded=0;orthogonalLoop=1;jettySize=auto;html=1;" edge="1" parent="1" source="UvyZ2tsqIFduZ7vZ4P_s-243" target="UvyZ2tsqIFduZ7vZ4P_s-245">
          <mxGeometry relative="1" as="geometry" />
        </mxCell>
        <mxCell id="UvyZ2tsqIFduZ7vZ4P_s-243" value="Продължаваме със serbia_frontend" style="rounded=1;whiteSpace=wrap;html=1;fillColor=#fff2cc;strokeColor=#d6b656;" vertex="1" parent="1">
          <mxGeometry x="550" y="2414" width="159.5" height="60" as="geometry" />
        </mxCell>
        <mxCell id="UvyZ2tsqIFduZ7vZ4P_s-244" style="edgeStyle=orthogonalEdgeStyle;rounded=0;orthogonalLoop=1;jettySize=auto;html=1;" edge="1" parent="1" source="UvyZ2tsqIFduZ7vZ4P_s-245" target="UvyZ2tsqIFduZ7vZ4P_s-254">
          <mxGeometry relative="1" as="geometry" />
        </mxCell>
        <mxCell id="UvyZ2tsqIFduZ7vZ4P_s-245" value="пишем&lt;br&gt;cd /home/Informatica/_Projects_/srb-integration/" style="rounded=1;whiteSpace=wrap;html=1;fillColor=#dae8fc;strokeColor=#6c8ebf;" vertex="1" parent="1">
          <mxGeometry x="759.5" y="2414" width="320" height="60" as="geometry" />
        </mxCell>
        <mxCell id="UvyZ2tsqIFduZ7vZ4P_s-246" style="edgeStyle=orthogonalEdgeStyle;rounded=0;orthogonalLoop=1;jettySize=auto;html=1;entryX=0;entryY=0.5;entryDx=0;entryDy=0;" edge="1" parent="1" source="UvyZ2tsqIFduZ7vZ4P_s-247" target="UvyZ2tsqIFduZ7vZ4P_s-250">
          <mxGeometry relative="1" as="geometry">
            <Array as="points">
              <mxPoint x="1624.5" y="2345" />
            </Array>
          </mxGeometry>
        </mxCell>
        <mxCell id="UvyZ2tsqIFduZ7vZ4P_s-247" value="пишем&lt;br&gt;npm start" style="rounded=1;whiteSpace=wrap;html=1;fillColor=#dae8fc;strokeColor=#6c8ebf;" vertex="1" parent="1">
          <mxGeometry x="1479.5" y="2414" width="290.5" height="60" as="geometry" />
        </mxCell>
        <mxCell id="UvyZ2tsqIFduZ7vZ4P_s-248" value="Не" style="edgeStyle=orthogonalEdgeStyle;rounded=0;orthogonalLoop=1;jettySize=auto;html=1;" edge="1" parent="1" source="UvyZ2tsqIFduZ7vZ4P_s-250" target="UvyZ2tsqIFduZ7vZ4P_s-251">
          <mxGeometry relative="1" as="geometry" />
        </mxCell>
        <mxCell id="UvyZ2tsqIFduZ7vZ4P_s-249" value="Да" style="edgeStyle=orthogonalEdgeStyle;rounded=0;orthogonalLoop=1;jettySize=auto;html=1;" edge="1" parent="1" source="UvyZ2tsqIFduZ7vZ4P_s-250" target="UvyZ2tsqIFduZ7vZ4P_s-252">
          <mxGeometry relative="1" as="geometry" />
        </mxCell>
        <mxCell id="UvyZ2tsqIFduZ7vZ4P_s-250" value="OK ли е?&lt;br&gt;Изписва &lt;br&gt;лого" style="rhombus;whiteSpace=wrap;html=1;" vertex="1" parent="1">
          <mxGeometry x="1830.5" y="2305" width="80" height="80" as="geometry" />
        </mxCell>
        <mxCell id="UvyZ2tsqIFduZ7vZ4P_s-251" value="Намери проблема" style="rounded=1;whiteSpace=wrap;html=1;fillColor=#e1d5e7;strokeColor=#9673a6;" vertex="1" parent="1">
          <mxGeometry x="1951" y="2315" width="120" height="60" as="geometry" />
        </mxCell>
        <mxCell id="UvyZ2tsqIFduZ7vZ4P_s-259" style="edgeStyle=orthogonalEdgeStyle;rounded=0;orthogonalLoop=1;jettySize=auto;html=1;entryX=0;entryY=0.5;entryDx=0;entryDy=0;" edge="1" parent="1" source="UvyZ2tsqIFduZ7vZ4P_s-252" target="UvyZ2tsqIFduZ7vZ4P_s-258">
          <mxGeometry relative="1" as="geometry" />
        </mxCell>
        <mxCell id="UvyZ2tsqIFduZ7vZ4P_s-252" value="CTRL+A+D" style="rounded=1;whiteSpace=wrap;html=1;fillColor=#dae8fc;strokeColor=#6c8ebf;" vertex="1" parent="1">
          <mxGeometry x="1800" y="2414" width="140" height="60" as="geometry" />
        </mxCell>
        <mxCell id="UvyZ2tsqIFduZ7vZ4P_s-253" value="" style="edgeStyle=orthogonalEdgeStyle;rounded=0;orthogonalLoop=1;jettySize=auto;html=1;" edge="1" parent="1" source="UvyZ2tsqIFduZ7vZ4P_s-254" target="UvyZ2tsqIFduZ7vZ4P_s-256">
          <mxGeometry relative="1" as="geometry" />
        </mxCell>
        <mxCell id="UvyZ2tsqIFduZ7vZ4P_s-254" value="пишем&lt;br&gt;source ~/.bash_profile" style="rounded=1;whiteSpace=wrap;html=1;fillColor=#dae8fc;strokeColor=#6c8ebf;" vertex="1" parent="1">
          <mxGeometry x="1119.5" y="2414" width="140" height="60" as="geometry" />
        </mxCell>
        <mxCell id="UvyZ2tsqIFduZ7vZ4P_s-255" style="edgeStyle=orthogonalEdgeStyle;rounded=0;orthogonalLoop=1;jettySize=auto;html=1;" edge="1" parent="1" source="UvyZ2tsqIFduZ7vZ4P_s-256" target="UvyZ2tsqIFduZ7vZ4P_s-247">
          <mxGeometry relative="1" as="geometry" />
        </mxCell>
        <mxCell id="UvyZ2tsqIFduZ7vZ4P_s-256" value="връща ни &quot;SOURCED&quot;" style="rounded=1;whiteSpace=wrap;html=1;fillColor=#fff2cc;strokeColor=#d6b656;" vertex="1" parent="1">
          <mxGeometry x="1289.5" y="2414" width="140" height="60" as="geometry" />
        </mxCell>
        <mxCell id="UvyZ2tsqIFduZ7vZ4P_s-261" style="edgeStyle=orthogonalEdgeStyle;rounded=0;orthogonalLoop=1;jettySize=auto;html=1;" edge="1" parent="1" source="UvyZ2tsqIFduZ7vZ4P_s-258" target="UvyZ2tsqIFduZ7vZ4P_s-260">
          <mxGeometry relative="1" as="geometry" />
        </mxCell>
        <mxCell id="UvyZ2tsqIFduZ7vZ4P_s-258" value="Готово" style="shape=process;whiteSpace=wrap;html=1;backgroundOutline=1;fillColor=#d5e8d4;strokeColor=#82b366;" vertex="1" parent="1">
          <mxGeometry x="2000" y="2414" width="120" height="60" as="geometry" />
        </mxCell>
        <mxCell id="UvyZ2tsqIFduZ7vZ4P_s-260" value="Пусни всички сервизи на Информатика" style="rounded=1;whiteSpace=wrap;html=1;fillColor=#fff2cc;strokeColor=#d6b656;" vertex="1" parent="1">
          <mxGeometry x="2180" y="2414" width="140" height="60" as="geometry" />
        </mxCell>
      </root>
    </mxGraphModel>
  </diagram>
</mxfile>
